<svg width="1099" height="1343" viewBox="0 0 1099 1343" fill="none" xmlns="http://www.w3.org/2000/svg">
<rect x="231.679" y="802.441" width="548" height="516" rx="54" transform="rotate(-0.29408 231.679 802.441)" fill="url(#paint0_linear_44_6)"/>
<circle cx="418.386" cy="1036.99" r="88.5" transform="rotate(-0.29408 418.386 1036.99)" fill="white"/>
<circle cx="418.883" cy="1036.48" r="50" transform="rotate(-0.29408 418.883 1036.48)" fill="#162306"/>
<circle cx="418.755" cy="1011.48" r="25" transform="rotate(-0.29408 418.755 1011.48)" fill="white"/>
<circle cx="603.727" cy="1036.03" r="88.5" transform="rotate(-0.29408 603.727 1036.03)" fill="white"/>
<circle cx="604.225" cy="1035.53" r="50" transform="rotate(-0.29408 604.225 1035.53)" fill="#162306"/>
<circle cx="604.096" cy="1010.53" r="25" transform="rotate(-0.29408 604.096 1010.53)" fill="white"/>
<mask id="path-8-outside-1_44_6" maskUnits="userSpaceOnUse" x="207.895" y="841.515" width="594.403" height="83.0477" fill="black">
<rect fill="white" x="207.895" y="841.515" width="594.403" height="83.0477"/>
<path d="M208.034 871.563C207.957 856.652 219.984 844.501 234.895 844.425L774.888 841.653C789.799 841.577 801.95 853.603 802.026 868.514L802.119 886.514C802.195 901.426 790.169 913.576 775.257 913.652L235.265 916.424C220.353 916.5 208.203 904.474 208.126 889.563L208.034 871.563Z"/>
</mask>
<path d="M208.034 871.563C207.957 856.652 219.984 844.501 234.895 844.425L774.888 841.653C789.799 841.577 801.95 853.603 802.026 868.514L802.119 886.514C802.195 901.426 790.169 913.576 775.257 913.652L235.265 916.424C220.353 916.5 208.203 904.474 208.126 889.563L208.034 871.563Z" fill="#B7FF00"/>
<path d="M207.895 844.563L801.888 841.515L207.895 844.563ZM802.119 886.514C802.218 905.844 786.628 921.594 767.299 921.693L243.306 924.383C223.976 924.482 208.226 908.893 208.126 889.563C208.18 900.056 220.312 908.501 235.224 908.424L775.216 905.652C790.128 905.576 802.172 897.007 802.119 886.514ZM208.265 916.563L207.895 844.563L208.265 916.563ZM801.888 841.515L802.257 913.514L801.888 841.515Z" fill="black" fill-opacity="0.11" mask="url(#path-8-outside-1_44_6)"/>
<g clip-path="url(#clip0_44_6)">
<path d="M528 834.462C528 862.077 517.614 809.462 490 809.462C462.386 809.462 440 787.077 440 759.462C440 731.848 462.386 773.462 490 773.462C517.614 773.462 528 806.848 528 834.462Z" fill="#7DFF72"/>
<path d="M541 822.462C541 850.077 530.614 797.462 503 797.462C475.386 797.462 453 775.077 453 747.462C453 719.848 475.386 761.462 503 761.462C530.614 761.462 541 794.848 541 822.462Z" fill="#CEFFCA"/>
</g>
<rect x="386.326" y="1157.48" width="257.647" height="84.9509" rx="33" transform="rotate(1.70609 386.326 1157.48)" fill="#0E3E07"/>
<rect x="386.326" y="1157.48" width="257.647" height="84.9509" rx="33" transform="rotate(1.70609 386.326 1157.48)" fill="#0E3E07"/>
<path d="M427.521 1157L589.437 1161.82L588.666 1187.72C588.123 1205.93 572.915 1220.26 554.698 1219.72L458.753 1216.86C440.535 1216.32 426.207 1201.11 426.75 1182.89L427.521 1157Z" fill="#F3FFF1"/>
<path d="M559.324 686.84C559.324 654.87 559.324 638.884 569.34 629.163C579.355 619.441 595.333 619.917 627.289 620.869L970.564 631.094C1001.66 632.02 1017.21 632.483 1026.59 642.432C1035.96 652.381 1035.5 667.931 1034.57 699.029L1030.17 846.84C1029.24 877.814 1028.78 893.301 1018.89 902.667C1008.99 912.033 993.5 911.64 962.523 910.854L489 898.845L524.7 879.554C541.574 870.436 550.011 865.877 554.668 858.068C559.324 850.259 559.324 840.669 559.324 821.489L559.324 686.84Z" fill="white"/>
<path d="M559.824 686.84C559.824 670.84 559.825 658.892 561.071 649.725C562.316 640.574 564.793 634.273 569.688 629.522C574.583 624.77 580.954 622.482 590.139 621.511C599.338 620.538 611.282 620.892 627.274 621.369L970.549 631.593C986.113 632.057 997.735 632.404 1006.64 633.873C1015.53 635.339 1021.64 637.912 1026.22 642.775C1030.8 647.638 1033.01 653.889 1033.94 662.851C1034.88 671.829 1034.53 683.451 1034.07 699.015L1029.67 846.826C1029.21 862.326 1028.86 873.902 1027.4 882.775C1025.94 891.634 1023.38 897.726 1018.54 902.304C1013.7 906.882 1007.48 909.102 998.555 910.07C989.615 911.04 978.038 910.748 962.536 910.354L490.889 898.392L524.938 879.994L524.963 879.98C533.379 875.433 539.724 872.004 544.546 868.734C549.381 865.455 552.718 862.313 555.097 858.324C557.476 854.335 558.653 849.906 559.239 844.093C559.824 838.296 559.824 831.083 559.824 821.517L559.824 821.489L559.824 686.84Z" stroke="#D7D0D0" stroke-opacity="0.2"/>
<path d="M612.888 660.224C615.747 659.157 618.328 658.688 620.632 658.816C622.979 658.944 625.069 659.541 626.904 660.608C628.739 661.632 630.296 663.019 631.576 664.768C632.899 666.517 633.965 668.48 634.776 670.656C635.416 672.277 635.907 673.984 636.248 675.776C636.589 677.568 636.781 679.36 636.824 681.152C636.909 682.901 636.845 684.629 636.632 686.336C636.461 688.043 636.163 689.621 635.736 691.072C635.48 692.053 635.181 692.949 634.84 693.76C634.499 694.571 634.093 695.381 633.624 696.192C632.557 698.027 631.171 699.52 629.464 700.672C627.8 701.824 625.965 702.635 623.96 703.104C622.595 703.445 621.187 703.616 619.736 703.616C618.285 703.573 616.856 703.381 615.448 703.04C614.04 702.656 612.675 702.123 611.352 701.44C610.072 700.715 608.899 699.819 607.832 698.752C606.509 697.472 605.421 696 604.568 694.336C603.715 692.629 603.053 690.859 602.584 689.024C602.115 687.147 601.816 685.269 601.688 683.392C601.56 681.515 601.56 679.723 601.688 678.016C601.816 676.437 602.115 674.752 602.584 672.96C603.096 671.168 603.821 669.44 604.76 667.776C605.699 666.112 606.829 664.619 608.152 663.296C609.517 661.931 611.096 660.907 612.888 660.224ZM627.864 687.616C628.376 685.611 628.589 683.349 628.504 680.832C628.419 678.315 628.013 675.947 627.288 673.728C626.819 672.363 626.221 671.168 625.496 670.144C624.813 669.077 623.981 668.267 623 667.712C622.061 667.157 620.952 666.88 619.672 666.88C618.392 666.88 616.963 667.264 615.384 668.032C614.445 668.501 613.635 669.141 612.952 669.952C612.312 670.763 611.779 671.68 611.352 672.704C610.968 673.728 610.648 674.795 610.392 675.904C610.179 677.013 610.051 678.08 610.008 679.104C609.923 680.213 609.901 681.387 609.944 682.624C609.987 683.819 610.115 685.035 610.328 686.272C610.584 687.467 610.925 688.619 611.352 689.728C611.779 690.795 612.355 691.755 613.08 692.608C614.189 693.888 615.469 694.784 616.92 695.296C618.413 695.765 619.885 695.829 621.336 695.488C623.683 694.976 625.475 693.419 626.712 690.816C627.224 689.877 627.608 688.811 627.864 687.616ZM650.316 675.072C651.724 674.389 653.196 673.899 654.732 673.6C656.268 673.301 657.783 673.237 659.276 673.408C660.812 673.579 662.284 673.984 663.692 674.624C665.143 675.264 666.465 676.16 667.66 677.312C668.641 678.293 669.495 679.488 670.22 680.896C670.945 682.261 671.479 683.605 671.82 684.928C672.545 687.275 672.652 689.643 672.14 692.032C671.628 694.421 670.753 696.64 669.516 698.688C668.919 699.627 668.172 700.48 667.276 701.248C666.423 701.973 665.505 702.571 664.524 703.04C663.244 703.637 661.857 704.043 660.364 704.256C658.871 704.512 657.42 704.576 656.012 704.448C653.452 704.32 651.191 703.68 649.228 702.528C647.308 701.376 645.751 699.904 644.556 698.112C643.404 696.32 642.636 694.293 642.252 692.032C641.911 689.728 642.06 687.381 642.7 684.992C643.383 682.432 644.364 680.363 645.644 678.784C646.967 677.163 648.524 675.925 650.316 675.072ZM652.236 683.648C651.596 684.245 651.105 684.992 650.764 685.888C650.423 686.784 650.209 687.723 650.124 688.704C650.039 689.643 650.103 690.603 650.316 691.584C650.572 692.523 650.956 693.376 651.468 694.144C651.895 694.784 652.663 695.317 653.772 695.744C654.881 696.171 656.033 696.427 657.228 696.512C658.593 696.597 659.788 696.235 660.812 695.424C661.836 694.571 662.604 693.525 663.116 692.288C663.671 691.051 663.927 689.707 663.884 688.256C663.841 686.805 663.457 685.483 662.732 684.288C662.22 683.435 661.495 682.816 660.556 682.432C659.66 682.005 658.7 681.792 657.676 681.792C656.695 681.749 655.713 681.899 654.732 682.24C653.751 682.539 652.919 683.008 652.236 683.648ZM695.48 675.2C696.717 675.712 697.848 676.459 698.872 677.44C699.896 678.379 700.771 679.467 701.496 680.704C702.264 681.941 702.84 683.285 703.224 684.736C703.651 686.144 703.864 687.573 703.864 689.024C703.907 691.2 703.395 693.248 702.328 695.168C701.304 697.088 699.619 698.56 697.272 699.584C695.48 700.309 693.624 700.864 691.704 701.248C689.827 701.589 687.864 701.824 685.816 701.952V713.664C685.816 713.92 685.773 714.155 685.688 714.368C685.645 714.581 685.624 714.795 685.624 715.008C685.539 715.435 685.432 715.819 685.304 716.16C685.219 716.501 685.091 716.864 684.92 717.248C684.749 717.504 684.579 717.739 684.408 717.952C684.237 718.165 684.045 718.379 683.832 718.592C682.808 719.104 681.741 719.211 680.632 718.912C679.949 718.869 679.395 718.656 678.968 718.272C678.584 717.888 678.307 717.483 678.136 717.056C677.965 716.629 677.816 716.139 677.688 715.584C677.645 715.371 677.603 715.157 677.56 714.944C677.56 714.773 677.56 714.581 677.56 714.368V678.72C677.56 678.464 677.56 678.208 677.56 677.952C677.603 677.653 677.645 677.355 677.688 677.056C677.731 676.544 677.859 676.032 678.072 675.52C678.456 674.453 679.245 673.728 680.44 673.344C681.635 672.96 682.979 672.789 684.472 672.832C685.496 672.875 686.541 672.981 687.608 673.152C688.717 673.323 689.763 673.536 690.744 673.792C691.768 674.005 692.685 674.24 693.496 674.496C694.307 674.752 694.968 674.987 695.48 675.2ZM695.608 689.024C695.779 687.829 695.629 686.827 695.16 686.016C694.733 685.163 694.115 684.48 693.304 683.968C692.493 683.413 691.555 682.987 690.488 682.688C689.464 682.389 688.44 682.176 687.416 682.048C687.288 682.005 687.075 681.984 686.776 681.984C686.52 681.984 686.221 681.984 685.88 681.984C685.88 683.349 685.88 684.672 685.88 685.952C685.923 687.189 685.923 688.533 685.88 689.984V694.272C686.861 694.229 687.885 694.123 688.952 693.952C690.061 693.781 691.085 693.504 692.024 693.12C692.963 692.736 693.752 692.224 694.392 691.584C695.075 690.944 695.48 690.091 695.608 689.024ZM724.356 692.736C723.545 692.224 722.628 691.819 721.604 691.52C720.623 691.221 719.599 690.944 718.532 690.688C717.508 690.432 716.505 690.155 715.524 689.856C714.543 689.515 713.647 689.045 712.836 688.448C711.087 687.125 710.063 685.504 709.764 683.584C709.508 681.621 709.935 679.659 711.044 677.696C711.641 676.672 712.431 675.84 713.412 675.2C714.393 674.517 715.46 674.005 716.612 673.664C717.807 673.28 719.023 673.067 720.26 673.024C721.497 672.981 722.671 673.045 723.78 673.216C724.505 673.344 725.273 673.536 726.084 673.792C726.895 674.005 727.641 674.304 728.324 674.688C729.049 675.072 729.689 675.563 730.244 676.16C730.841 676.715 731.268 677.419 731.524 678.272C731.695 678.827 731.716 679.36 731.588 679.872C731.503 680.384 731.289 680.811 730.948 681.152C730.649 681.493 730.244 681.749 729.732 681.92C729.263 682.091 728.751 682.133 728.196 682.048C727.556 681.92 726.959 681.728 726.404 681.472C725.849 681.216 725.295 680.939 724.74 680.64C724.185 680.341 723.609 680.085 723.012 679.872C722.457 679.659 721.86 679.552 721.22 679.552C720.239 679.509 719.428 679.68 718.788 680.064C718.148 680.448 717.7 680.917 717.444 681.472C717.231 682.027 717.252 682.624 717.508 683.264C717.807 683.904 718.404 684.459 719.3 684.928C720.111 685.355 721.007 685.696 721.988 685.952C722.969 686.208 723.929 686.464 724.868 686.72C725.849 686.976 726.788 687.275 727.684 687.616C728.623 687.957 729.455 688.427 730.18 689.024C731.588 690.176 732.441 691.52 732.74 693.056C733.081 694.592 732.996 696.107 732.484 697.6C731.972 699.093 731.076 700.416 729.796 701.568C728.559 702.72 727.087 703.488 725.38 703.872C724.143 704.128 722.799 704.256 721.348 704.256C719.94 704.256 718.532 704.107 717.124 703.808C715.759 703.509 714.436 703.04 713.156 702.4C711.919 701.76 710.873 700.949 710.02 699.968C709.423 699.285 709.103 698.517 709.06 697.664C709.06 696.768 709.231 696 709.572 695.36C709.956 694.677 710.489 694.208 711.172 693.952C711.855 693.696 712.623 693.845 713.476 694.4C714.159 694.869 714.969 695.339 715.908 695.808C716.847 696.235 717.785 696.576 718.724 696.832C719.663 697.088 720.559 697.216 721.412 697.216C722.308 697.216 723.076 697.024 723.716 696.64C724.655 696.043 725.145 695.36 725.188 694.592C725.231 693.781 724.953 693.163 724.356 692.736ZM741.003 656.832C741.344 656.277 741.813 655.872 742.411 655.616C743.008 655.36 743.584 655.232 744.139 655.232C744.608 655.232 745.056 655.253 745.483 655.296C745.952 655.296 746.4 655.339 746.827 655.424C747.723 655.68 748.363 656.256 748.747 657.152C749.131 658.005 749.365 659.008 749.451 660.16C749.579 661.269 749.6 662.379 749.515 663.488C749.472 664.597 749.451 665.493 749.451 666.176V685.056C749.451 685.909 749.451 686.763 749.451 687.616C749.451 688.469 749.301 689.28 749.003 690.048C748.704 690.773 748.149 691.307 747.339 691.648C746.528 691.989 745.675 692.16 744.779 692.16C743.883 692.117 743.029 691.925 742.219 691.584C741.408 691.2 740.853 690.667 740.555 689.984C740.427 689.6 740.32 689.131 740.235 688.576C740.192 687.979 740.149 687.445 740.107 686.976C740.064 686.251 740.043 685.504 740.043 684.736C740.085 683.925 740.107 683.115 740.107 682.304V660.864C740.107 660.352 740.171 659.691 740.299 658.88C740.427 658.069 740.661 657.387 741.003 656.832ZM748.363 697.984C748.491 698.197 748.597 698.411 748.683 698.624C748.811 698.795 748.917 699.008 749.003 699.264C749.131 699.733 749.216 700.224 749.259 700.736C749.301 701.248 749.259 701.76 749.131 702.272C749.003 702.741 748.789 703.189 748.491 703.616C748.192 704.043 747.787 704.363 747.275 704.576C746.805 704.789 746.251 704.917 745.611 704.96C744.971 705.003 744.352 704.96 743.755 704.832C743.157 704.704 742.603 704.469 742.091 704.128C741.579 703.787 741.216 703.339 741.003 702.784C740.789 702.187 740.661 701.504 740.619 700.736C740.619 699.925 740.725 699.221 740.939 698.624C741.195 697.984 741.6 697.557 742.155 697.344C742.709 697.088 743.307 696.96 743.947 696.96C744.757 696.917 745.547 696.939 746.315 697.024C747.125 697.109 747.808 697.429 748.363 697.984ZM821.881 661.248C822.052 662.059 822.052 662.912 821.881 663.808C821.796 664.235 821.71 664.661 821.625 665.088C821.582 665.472 821.518 665.877 821.433 666.304L821.369 666.56C820.772 669.205 820.089 672 819.321 674.944C818.596 677.845 817.934 680.597 817.337 683.2C816.825 685.333 816.292 687.68 815.737 690.24C815.182 692.8 814.606 695.147 814.009 697.28C813.796 698.005 813.561 698.731 813.305 699.456C813.092 700.181 812.814 700.907 812.473 701.632C812.174 702.272 811.812 702.848 811.385 703.36C811.001 703.829 810.553 704.171 810.041 704.384C809.529 704.64 808.974 704.725 808.377 704.64C807.822 704.597 807.204 704.341 806.521 703.872C805.497 703.147 804.729 702.144 804.217 700.864C803.748 699.584 803.257 698.411 802.745 697.344C802.574 697.045 802.318 696.384 801.977 695.36C801.636 694.336 801.273 693.227 800.889 692.032C800.505 690.795 800.121 689.621 799.737 688.512C799.396 687.36 799.097 686.507 798.841 685.952C798.457 686.891 798.073 687.957 797.689 689.152C797.305 690.347 796.942 691.52 796.601 692.672C796.26 693.824 795.94 694.869 795.641 695.808C795.385 696.704 795.193 697.365 795.065 697.792C794.724 698.645 794.34 699.584 793.913 700.608C793.529 701.632 793.038 702.507 792.441 703.232C791.886 703.957 791.204 704.427 790.393 704.64C789.582 704.896 788.622 704.661 787.513 703.936C786.66 703.424 786.062 702.699 785.721 701.76C785.508 701.163 785.294 700.587 785.081 700.032C784.868 699.477 784.697 698.901 784.569 698.304L783.289 693.504L780.665 683.2C780.324 681.877 779.982 680.533 779.641 679.168C779.342 677.76 778.98 676.309 778.553 674.816C778.34 674.091 778.148 673.387 777.977 672.704C777.849 671.979 777.7 671.211 777.529 670.4C777.401 669.547 777.23 668.587 777.017 667.52C776.846 666.453 776.633 665.216 776.377 663.808C776.292 663.339 776.228 662.912 776.185 662.528C776.185 662.101 776.228 661.675 776.313 661.248C776.398 660.608 776.697 660.053 777.209 659.584C777.422 659.371 777.678 659.2 777.977 659.072C778.276 658.944 778.596 658.837 778.937 658.752C779.449 658.581 779.982 658.496 780.537 658.496C781.049 658.496 781.582 658.667 782.137 659.008C782.521 659.221 782.82 659.499 783.033 659.84L783.801 661.184C783.886 661.483 783.972 661.76 784.057 662.016C784.142 662.229 784.228 662.464 784.313 662.72C784.398 663.019 784.462 663.296 784.505 663.552C784.548 663.765 784.59 663.979 784.633 664.192C785.017 666.411 785.486 668.565 786.041 670.656C786.596 672.747 787.108 674.752 787.577 676.672C787.748 677.44 787.961 678.4 788.217 679.552C788.473 680.661 788.729 681.835 788.985 683.072C789.241 684.267 789.497 685.419 789.753 686.528C790.009 687.637 790.265 688.512 790.521 689.152C791.076 687.232 791.63 685.312 792.185 683.392C792.782 681.472 793.422 679.531 794.105 677.568C794.446 676.544 794.788 675.627 795.129 674.816C795.513 673.963 795.94 673.259 796.409 672.704C796.878 672.149 797.412 671.787 798.009 671.616C798.606 671.445 799.31 671.509 800.121 671.808C800.846 672.107 801.486 672.747 802.041 673.728C802.596 674.709 803.086 675.712 803.513 676.736C803.897 677.675 804.26 678.677 804.601 679.744C804.985 680.768 805.348 681.792 805.689 682.816C806.073 683.797 806.436 684.736 806.777 685.632C807.118 686.528 807.46 687.296 807.801 687.936C807.929 687.467 808.078 686.869 808.249 686.144C808.42 685.419 808.59 684.651 808.761 683.84C808.974 682.987 809.166 682.155 809.337 681.344C809.508 680.533 809.678 679.787 809.849 679.104C810.404 676.8 810.98 674.496 811.577 672.192C812.174 669.845 812.75 667.541 813.305 665.28L813.625 664.192C813.71 663.979 813.753 663.765 813.753 663.552C813.796 663.296 813.86 663.019 813.945 662.72C814.03 662.464 814.116 662.229 814.201 662.016C814.286 661.76 814.372 661.483 814.457 661.184C814.542 660.971 814.628 660.757 814.713 660.544C814.841 660.288 814.99 660.053 815.161 659.84C815.289 659.627 815.438 659.456 815.609 659.328C815.78 659.2 815.95 659.093 816.121 659.008C816.718 658.667 817.23 658.496 817.657 658.496C818.212 658.496 818.745 658.581 819.257 658.752C819.94 658.88 820.558 659.157 821.113 659.584C821.54 660.011 821.796 660.565 821.881 661.248ZM846.579 695.232C847.091 695.104 847.603 695.019 848.115 694.976C848.67 694.933 849.16 694.997 849.587 695.168C850.056 695.339 850.44 695.637 850.739 696.064C851.038 696.448 851.187 697.003 851.187 697.728C851.187 698.24 851.059 698.731 850.803 699.2C850.547 699.669 850.227 700.096 849.843 700.48C849.459 700.864 849.032 701.205 848.563 701.504C848.094 701.76 847.646 701.973 847.219 702.144C845.982 702.699 844.552 703.125 842.931 703.424C841.352 703.723 839.71 703.829 838.003 703.744C835.699 703.659 833.48 703.211 831.347 702.4C829.256 701.547 827.614 700.16 826.419 698.24C825.31 696.363 824.648 694.272 824.435 691.968C824.222 689.664 824.328 687.488 824.755 685.44C825.224 682.965 826.014 680.96 827.123 679.424C828.275 677.845 829.64 676.587 831.219 675.648C833.139 674.539 835.294 673.963 837.683 673.92C840.072 673.877 842.355 674.347 844.531 675.328C845.982 675.968 847.283 676.843 848.435 677.952C849.587 679.019 850.462 680.32 851.059 681.856C851.23 682.24 851.358 682.709 851.443 683.264C851.571 683.819 851.656 684.416 851.699 685.056C851.742 685.653 851.742 686.251 851.699 686.848C851.656 687.445 851.55 687.979 851.379 688.448C851.123 689.216 850.803 689.813 850.419 690.24C850.035 690.667 849.544 690.987 848.947 691.2C848.35 691.413 847.624 691.563 846.771 691.648C845.96 691.691 844.979 691.733 843.827 691.776C842.803 691.819 841.843 691.84 840.947 691.84C840.051 691.84 839.134 691.84 838.195 691.84C837.256 691.797 836.275 691.776 835.251 691.776C834.27 691.733 833.16 691.691 831.923 691.648C831.795 692.501 831.902 693.248 832.243 693.888C832.627 694.485 833.139 694.997 833.779 695.424C834.419 695.808 835.144 696.107 835.955 696.32C836.766 696.533 837.555 696.661 838.323 696.704C839.774 696.789 841.16 696.683 842.483 696.384C843.806 696.043 845.171 695.659 846.579 695.232ZM843.827 682.816C843.016 681.877 842.163 681.195 841.267 680.768C840.584 680.469 839.859 680.341 839.091 680.384C838.366 680.384 837.662 680.491 836.979 680.704C835.742 681.003 834.696 681.643 833.843 682.624C833.758 682.709 833.608 682.923 833.395 683.264C833.182 683.563 832.968 683.883 832.755 684.224C832.584 684.565 832.456 684.885 832.371 685.184C832.286 685.483 832.328 685.632 832.499 685.632H845.043C845 685.035 844.894 684.544 844.723 684.16C844.552 683.733 844.254 683.285 843.827 682.816ZM625.368 759.36C625.709 759.957 625.88 760.597 625.88 761.28C625.923 761.963 625.773 762.603 625.432 763.2C625.048 763.968 624.493 764.501 623.768 764.8C623.085 765.056 622.317 765.077 621.464 764.864C621.08 764.779 620.739 764.629 620.44 764.416C620.141 764.203 619.821 763.989 619.48 763.776C619.181 763.52 618.819 763.285 618.392 763.072C618.008 762.859 617.496 762.709 616.856 762.624C616.216 762.539 615.512 762.539 614.744 762.624C614.019 762.709 613.357 762.88 612.76 763.136C611.821 763.605 611.075 764.331 610.52 765.312C609.965 766.251 609.603 767.275 609.432 768.384C609.261 769.451 609.283 770.539 609.496 771.648C609.752 772.757 610.221 773.696 610.904 774.464C611.416 775.061 612.077 775.552 612.888 775.936C613.741 776.32 614.552 776.555 615.32 776.64C616.045 776.725 616.771 776.725 617.496 776.64C618.221 776.512 618.925 776.341 619.608 776.128C620.12 775.915 620.696 775.637 621.336 775.296C621.976 774.912 622.595 774.677 623.192 774.592C623.96 774.592 624.557 774.805 624.984 775.232C625.411 775.616 625.709 776.107 625.88 776.704C626.051 777.259 626.072 777.856 625.944 778.496C625.859 779.136 625.624 779.691 625.24 780.16C624.728 780.8 624.003 781.419 623.064 782.016C622.125 782.571 621.229 782.976 620.376 783.232C619.352 783.573 618.2 783.765 616.92 783.808C615.683 783.851 614.509 783.808 613.4 783.68C612.888 783.595 612.355 783.488 611.8 783.36C611.245 783.232 610.712 783.083 610.2 782.912C608.323 782.229 606.744 781.269 605.464 780.032C604.227 778.752 603.267 777.323 602.584 775.744C601.944 774.165 601.581 772.48 601.496 770.688C601.411 768.896 601.624 767.125 602.136 765.376C602.605 763.712 603.181 762.304 603.864 761.152C604.589 760 605.421 759.061 606.36 758.336C607.341 757.568 608.429 756.971 609.624 756.544C610.819 756.075 612.141 755.669 613.592 755.328C615.085 755.029 616.664 755.029 618.328 755.328C619.992 755.627 621.485 756.181 622.808 756.992C623.832 757.547 624.685 758.336 625.368 759.36ZM639.379 755.072C640.787 754.389 642.259 753.899 643.795 753.6C645.331 753.301 646.845 753.237 648.339 753.408C649.875 753.579 651.347 753.984 652.755 754.624C654.205 755.264 655.528 756.16 656.723 757.312C657.704 758.293 658.557 759.488 659.283 760.896C660.008 762.261 660.541 763.605 660.882 764.928C661.608 767.275 661.715 769.643 661.203 772.032C660.691 774.421 659.816 776.64 658.579 778.688C657.981 779.627 657.235 780.48 656.339 781.248C655.485 781.973 654.568 782.571 653.587 783.04C652.307 783.637 650.92 784.043 649.427 784.256C647.933 784.512 646.483 784.576 645.075 784.448C642.515 784.32 640.253 783.68 638.291 782.528C636.371 781.376 634.813 779.904 633.619 778.112C632.467 776.32 631.699 774.293 631.315 772.032C630.973 769.728 631.123 767.381 631.763 764.992C632.445 762.432 633.427 760.363 634.707 758.784C636.029 757.163 637.587 755.925 639.379 755.072ZM641.299 763.648C640.659 764.245 640.168 764.992 639.827 765.888C639.485 766.784 639.272 767.723 639.187 768.704C639.101 769.643 639.165 770.603 639.379 771.584C639.635 772.523 640.019 773.376 640.531 774.144C640.957 774.784 641.725 775.317 642.835 775.744C643.944 776.171 645.096 776.427 646.291 776.512C647.656 776.597 648.851 776.235 649.875 775.424C650.899 774.571 651.667 773.525 652.179 772.288C652.733 771.051 652.989 769.707 652.947 768.256C652.904 766.805 652.52 765.483 651.795 764.288C651.283 763.435 650.557 762.816 649.619 762.432C648.723 762.005 647.763 761.792 646.739 761.792C645.757 761.749 644.776 761.899 643.795 762.24C642.813 762.539 641.981 763.008 641.299 763.648ZM692.927 768.768C692.841 770.176 692.756 771.605 692.671 773.056C692.585 774.464 692.351 775.829 691.967 777.152C691.625 778.475 691.071 779.669 690.303 780.736C689.577 781.803 688.532 782.656 687.167 783.296C685.972 783.893 684.692 784.299 683.327 784.512C681.961 784.768 680.596 784.875 679.231 784.832C677.865 784.789 676.543 784.576 675.263 784.192C673.983 783.851 672.831 783.36 671.807 782.72C670.783 782.08 669.951 781.248 669.311 780.224C668.671 779.2 668.159 778.091 667.775 776.896C667.433 775.701 667.199 774.464 667.071 773.184C666.943 771.904 666.857 770.709 666.815 769.6C666.644 766.656 666.644 763.755 666.815 760.896C666.815 760.341 666.815 759.723 666.815 759.04C666.815 758.315 666.857 757.611 666.943 756.928C667.071 756.245 667.263 755.627 667.519 755.072C667.775 754.475 668.201 754.027 668.799 753.728C670.079 753.045 671.252 753.003 672.319 753.6C673.428 754.197 674.089 755.435 674.303 757.312C674.431 758.293 674.473 759.381 674.431 760.576C674.431 761.771 674.473 762.859 674.559 763.84C674.601 765.291 674.644 766.869 674.687 768.576C674.729 770.24 674.964 771.733 675.391 773.056C675.86 774.379 676.607 775.381 677.631 776.064C678.697 776.704 680.276 776.725 682.367 776.128C683.348 775.829 683.988 775.083 684.287 773.888C684.628 772.693 684.799 770.923 684.799 768.576C684.799 767.552 684.777 766.421 684.735 765.184C684.692 763.947 684.671 762.731 684.671 761.536C684.671 760.299 684.692 759.168 684.735 758.144C684.82 757.077 684.948 756.267 685.119 755.712C685.332 754.944 685.78 754.368 686.463 753.984C687.145 753.6 687.871 753.408 688.639 753.408C689.407 753.365 690.132 753.515 690.815 753.856C691.497 754.197 691.967 754.752 692.223 755.52C692.479 756.203 692.649 757.077 692.735 758.144C692.863 759.168 692.948 760.299 692.991 761.536C693.033 762.731 693.033 763.968 692.991 765.248C692.991 766.485 692.969 767.659 692.927 768.768ZM708.072 778.88C708.029 779.093 707.987 779.307 707.944 779.52C707.944 779.691 707.944 779.883 707.944 780.096L707.56 781.44C707.475 781.611 707.411 781.717 707.368 781.76L707.176 782.144C706.963 782.613 706.579 782.997 706.024 783.296C705 783.808 703.912 783.936 702.76 783.68C702.035 783.595 701.459 783.381 701.032 783.04C700.605 782.741 700.307 782.379 700.136 781.952C699.965 781.525 699.837 781.099 699.752 780.672C699.624 780.245 699.56 779.861 699.56 779.52V743.68C699.56 743.381 699.56 743.125 699.56 742.912C699.603 742.656 699.645 742.421 699.688 742.208C699.731 741.909 699.773 741.653 699.816 741.44C699.901 741.227 699.987 740.992 700.072 740.736C700.2 740.309 700.435 739.968 700.776 739.712C701.288 739.328 701.779 739.115 702.248 739.072C702.547 738.987 702.824 738.944 703.08 738.944C703.336 738.901 703.635 738.88 703.976 738.88C704.573 738.88 705.256 739.051 706.024 739.392C706.621 739.733 707.048 740.203 707.304 740.8C707.731 741.653 707.944 742.443 707.944 743.168C707.987 743.595 708.008 744.235 708.008 745.088C708.051 745.941 708.072 746.581 708.072 747.008V747.264C708.157 748.629 708.2 749.952 708.2 751.232C708.2 752.469 708.179 753.835 708.136 755.328C708.136 756.779 708.115 758.187 708.072 759.552C708.072 760.875 708.072 762.197 708.072 763.52V776.96C708.072 777.131 708.072 777.301 708.072 777.472C708.115 777.6 708.136 777.749 708.136 777.92C708.136 778.347 708.115 778.667 708.072 778.88ZM733.278 739.264C734.089 739.051 734.793 739.029 735.39 739.2C736.03 739.328 736.563 739.605 736.99 740.032C737.459 740.459 737.801 740.992 738.014 741.632C738.27 742.272 738.398 742.976 738.398 743.744C738.441 745.877 738.441 747.541 738.398 748.736C738.398 749.931 738.398 750.976 738.398 751.872V771.52C738.398 773.824 738.398 775.744 738.398 777.28C738.398 778.816 738.313 780.075 738.142 781.056C738.014 781.995 737.758 782.699 737.374 783.168C737.033 783.637 736.499 783.957 735.774 784.128C735.049 784.341 734.089 784.448 732.894 784.448C731.742 784.448 730.291 784.448 728.542 784.448C723.934 784.448 720.286 783.36 717.598 781.184C714.953 779.008 713.545 775.552 713.374 770.816C713.289 768.768 713.545 766.891 714.142 765.184C714.739 763.477 715.614 762.027 716.766 760.832C717.961 759.595 719.411 758.656 721.118 758.016C722.867 757.333 724.851 757.013 727.07 757.056H730.59V745.6C730.59 744.917 730.59 744.256 730.59 743.616C730.59 742.933 730.654 742.315 730.782 741.76C730.91 741.163 731.166 740.651 731.55 740.224C731.934 739.797 732.51 739.477 733.278 739.264ZM722.142 774.784C723.038 776.021 724.659 776.704 727.006 776.832C727.475 776.875 727.923 776.896 728.35 776.896C728.777 776.853 729.161 776.789 729.502 776.704C729.886 776.661 730.249 776.597 730.59 776.512V764.672C729.097 764.416 727.731 764.267 726.494 764.224C725.299 764.139 724.105 764.565 722.91 765.504C722.27 766.016 721.779 766.677 721.438 767.488C721.097 768.256 720.905 769.088 720.862 769.984C720.819 770.837 720.905 771.691 721.118 772.544C721.331 773.397 721.673 774.144 722.142 774.784ZM743.624 761.152C743.624 760.171 743.603 759.125 743.56 758.016C743.56 756.907 743.752 755.904 744.136 755.008C744.477 754.197 745.032 753.621 745.8 753.28C746.611 752.896 747.4 752.811 748.168 753.024C748.936 753.152 749.533 753.387 749.96 753.728C750.387 754.069 750.685 754.475 750.856 754.944C751.069 755.371 751.197 755.883 751.24 756.48C751.283 757.035 751.325 757.589 751.368 758.144C751.795 757.376 752.328 756.757 752.968 756.288C753.608 755.819 754.269 755.435 754.952 755.136C755.635 754.837 756.275 754.624 756.872 754.496C757.512 754.368 758.003 754.304 758.344 754.304C759.965 754.304 761.565 754.667 763.144 755.392C764.765 756.075 766.109 757.056 767.176 758.336C767.773 759.104 768.221 759.915 768.52 760.768C768.861 761.579 769.096 762.432 769.224 763.328C769.395 764.224 769.501 765.141 769.544 766.08C769.587 766.976 769.629 767.893 769.672 768.832C769.885 771.563 769.885 774.272 769.672 776.96C769.629 777.515 769.608 778.155 769.608 778.88C769.608 779.605 769.544 780.331 769.416 781.056C769.331 781.739 769.139 782.357 768.84 782.912C768.584 783.424 768.136 783.744 767.496 783.872C766.6 784.085 765.853 784.128 765.256 784C764.701 783.915 764.253 783.723 763.912 783.424C763.571 783.125 763.315 782.741 763.144 782.272C762.973 781.803 762.824 781.269 762.696 780.672C762.611 780.203 762.525 779.669 762.44 779.072C762.397 778.432 762.355 777.792 762.312 777.152C762.312 776.512 762.291 775.893 762.248 775.296C762.248 774.656 762.248 774.08 762.248 773.568C762.248 772.757 762.227 771.861 762.184 770.88C762.141 769.899 762.141 768.981 762.184 768.128C762.184 766.123 761.651 764.608 760.584 763.584C759.56 762.517 758.152 762.069 756.36 762.24C754.995 762.411 753.8 762.965 752.776 763.904C751.752 764.8 751.261 765.973 751.304 767.424C751.304 767.979 751.304 768.491 751.304 768.96C751.304 769.429 751.283 769.899 751.24 770.368C751.24 770.837 751.24 771.349 751.24 771.904C751.24 772.459 751.24 773.077 751.24 773.76C751.24 775.168 751.24 776.661 751.24 778.24C751.24 779.776 751.048 781.035 750.664 782.016C750.323 783.04 749.747 783.744 748.936 784.128C748.125 784.512 747.165 784.405 746.056 783.808C745.587 783.552 745.203 783.211 744.904 782.784C744.648 782.315 744.435 781.824 744.264 781.312C744.136 780.8 744.051 780.288 744.008 779.776C743.965 779.221 743.923 778.709 743.88 778.24C743.752 776.832 743.667 775.531 743.624 774.336C743.624 773.099 743.624 771.776 743.624 770.368V761.152ZM780.502 743.296C779.862 742.656 779.563 741.931 779.606 741.12C779.648 740.267 779.67 739.413 779.67 738.56L779.734 733.632C779.776 731.584 780.224 730.219 781.078 729.536C781.974 728.853 783.382 728.939 785.302 729.792C786.07 730.133 786.539 730.731 786.71 731.584C786.88 732.395 786.966 733.248 786.966 734.144V739.072C786.966 739.883 786.923 740.715 786.838 741.568C786.795 742.421 786.368 743.104 785.558 743.616C784.79 744.085 783.894 744.299 782.87 744.256C781.888 744.213 781.099 743.893 780.502 743.296ZM824.888 755.776C825.229 756.587 825.251 757.483 824.952 758.464C824.696 759.445 824.205 760.085 823.48 760.384C823.096 760.555 822.584 760.704 821.944 760.832C821.304 760.917 820.6 761.003 819.832 761.088C819.107 761.173 818.381 761.237 817.656 761.28C816.931 761.323 816.312 761.344 815.8 761.344C815.843 762.624 815.885 763.947 815.928 765.312C815.971 766.635 816.013 767.936 816.056 769.216C816.099 770.496 816.12 771.733 816.12 772.928C816.12 774.08 816.099 775.125 816.056 776.064C816.056 776.704 816.056 777.451 816.056 778.304C816.056 779.115 815.992 779.904 815.864 780.672C815.779 781.44 815.629 782.123 815.416 782.72C815.203 783.275 814.883 783.637 814.456 783.808C813.133 784.363 811.917 784.512 810.808 784.256C809.741 784.043 808.973 783.595 808.504 782.912C808.163 782.357 807.907 781.717 807.736 780.992C807.565 780.224 807.437 779.456 807.352 778.688C807.309 777.877 807.288 777.109 807.288 776.384C807.331 775.616 807.352 774.955 807.352 774.4C807.395 772.608 807.416 770.581 807.416 768.32C807.459 766.016 807.48 763.712 807.48 761.408H806.52C806.008 761.408 805.347 761.408 804.536 761.408C803.768 761.365 802.979 761.301 802.168 761.216C801.4 761.088 800.675 760.939 799.992 760.768C799.309 760.555 798.819 760.256 798.52 759.872C798.051 759.317 797.752 758.72 797.624 758.08C797.539 757.44 797.581 756.843 797.752 756.288C797.965 755.691 798.285 755.179 798.712 754.752C799.139 754.283 799.629 753.984 800.184 753.856C800.952 753.643 802.04 753.536 803.448 753.536C804.856 753.493 806.179 753.493 807.416 753.536C807.373 753.109 807.352 752.704 807.352 752.32C807.352 751.893 807.331 751.488 807.288 751.104C807.245 750.592 807.224 749.952 807.224 749.184C807.224 748.373 807.267 747.584 807.352 746.816C807.48 746.005 807.672 745.259 807.928 744.576C808.184 743.851 808.547 743.296 809.016 742.912C809.656 742.4 810.296 742.123 810.936 742.08C811.619 741.995 812.237 742.08 812.792 742.336C813.389 742.592 813.88 742.976 814.264 743.488C814.691 743.957 814.989 744.491 815.16 745.088C815.288 745.6 815.395 746.219 815.48 746.944C815.565 747.627 815.608 748.352 815.608 749.12C815.651 749.888 815.672 750.656 815.672 751.424C815.672 752.192 815.672 752.896 815.672 753.536H816.312C816.952 753.536 817.699 753.515 818.552 753.472C819.405 753.429 820.237 753.451 821.048 753.536C821.901 753.621 822.669 753.835 823.352 754.176C824.035 754.475 824.547 755.008 824.888 755.776ZM867.866 756.928C868.591 757.141 869.06 757.547 869.274 758.144C869.487 758.699 869.551 759.296 869.466 759.936C869.21 761.259 868.484 762.069 867.29 762.368C866.607 762.539 865.903 762.624 865.178 762.624C864.495 762.624 863.791 762.645 863.066 762.688V777.472C863.066 778.496 863.002 779.541 862.874 780.608C862.874 780.992 862.767 781.397 862.554 781.824C862.468 782.037 862.404 782.165 862.362 782.208C862.362 782.293 862.319 782.421 862.234 782.592C861.978 783.061 861.636 783.445 861.21 783.744C860.271 784.256 859.268 784.384 858.202 784.128C857.562 784 857.071 783.787 856.73 783.488C856.346 783.189 856.068 782.827 855.898 782.4C855.812 782.187 855.748 781.973 855.706 781.76C855.663 781.547 855.599 781.333 855.514 781.12C855.471 780.907 855.428 780.715 855.385 780.544C855.385 780.331 855.385 780.16 855.385 780.032V776.32C855.385 774.101 855.385 771.797 855.385 769.408C855.428 767.019 855.45 764.715 855.45 762.496C854.468 762.453 853.444 762.432 852.378 762.432C851.354 762.389 850.607 762.133 850.138 761.664C849.882 761.408 849.711 761.088 849.626 760.704C849.54 760.277 849.498 759.851 849.498 759.424C849.54 758.997 849.626 758.613 849.754 758.272C849.882 757.888 850.052 757.611 850.266 757.44C850.82 756.928 851.311 756.651 851.738 756.608C852.207 756.523 852.783 756.459 853.466 756.416C853.551 756.416 853.828 756.416 854.298 756.416C854.81 756.373 855.13 756.352 855.258 756.352C855.3 754.901 855.343 753.451 855.385 752C855.428 750.549 855.556 749.227 855.77 748.032C856.026 746.795 856.388 745.728 856.858 744.832C857.37 743.893 858.138 743.189 859.162 742.72C860.399 742.165 861.807 741.824 863.385 741.696C864.964 741.568 866.394 741.76 867.674 742.272C868.271 742.485 868.847 742.912 869.402 743.552C869.999 744.192 870.276 744.896 870.234 745.664C870.191 746.432 870.042 747.136 869.786 747.776C869.53 748.416 868.975 748.843 868.122 749.056C867.738 749.141 867.332 749.184 866.906 749.184C866.522 749.141 866.116 749.12 865.69 749.12C865.263 749.12 864.858 749.184 864.474 749.312C864.132 749.397 863.834 749.589 863.578 749.888C863.364 750.144 863.215 750.485 863.13 750.912C863.087 751.339 863.044 751.787 863.002 752.256C862.959 752.725 862.938 753.195 862.938 753.664C862.98 754.091 863.002 754.453 863.002 754.752V756.352C863.983 756.437 864.879 756.501 865.69 756.544C866.543 756.587 867.268 756.715 867.866 756.928ZM883.499 759.744C883.499 760.939 883.499 762.283 883.499 763.776C883.542 765.269 883.563 766.827 883.563 768.448C883.563 770.027 883.563 771.605 883.563 773.184C883.563 774.72 883.542 776.149 883.499 777.472C883.456 778.112 883.392 778.816 883.307 779.584C883.222 780.309 883.051 780.992 882.795 781.632C882.539 782.272 882.134 782.805 881.579 783.232C881.067 783.616 880.363 783.787 879.467 783.744C878.144 783.659 877.184 783.083 876.587 782.016C876.032 780.949 875.712 779.456 875.627 777.536C875.627 776.555 875.606 775.424 875.563 774.144C875.563 772.864 875.542 771.563 875.499 770.24C875.499 768.917 875.499 767.637 875.499 766.4C875.499 765.12 875.499 763.968 875.499 762.944C875.499 762.347 875.478 761.621 875.435 760.768C875.435 759.915 875.456 759.04 875.499 758.144C875.542 757.248 875.648 756.395 875.819 755.584C875.99 754.731 876.267 754.027 876.651 753.472C876.95 753.131 877.376 752.875 877.931 752.704C878.486 752.491 879.062 752.384 879.659 752.384C880.299 752.384 880.896 752.491 881.451 752.704C882.048 752.917 882.475 753.216 882.731 753.6C882.902 753.856 883.03 754.219 883.115 754.688C883.2 755.157 883.264 755.691 883.307 756.288C883.392 756.843 883.435 757.44 883.435 758.08C883.478 758.677 883.499 759.232 883.499 759.744ZM881.067 746.816C879.744 747.157 878.635 747.029 877.739 746.432C876.886 745.792 876.352 744.853 876.139 743.616C875.968 742.72 876.032 741.931 876.331 741.248C876.63 740.565 877.078 740.053 877.675 739.712C878.272 739.328 878.955 739.157 879.723 739.2C880.491 739.243 881.259 739.541 882.027 740.096C882.752 740.608 883.264 741.205 883.563 741.888C883.904 742.571 884.011 743.232 883.883 743.872C883.798 744.512 883.52 745.109 883.051 745.664C882.582 746.176 881.92 746.56 881.067 746.816ZM889.874 761.152C889.874 760.171 889.853 759.125 889.81 758.016C889.81 756.907 890.002 755.904 890.386 755.008C890.727 754.197 891.282 753.621 892.05 753.28C892.861 752.896 893.65 752.811 894.418 753.024C895.186 753.152 895.783 753.387 896.21 753.728C896.637 754.069 896.935 754.475 897.106 754.944C897.319 755.371 897.447 755.883 897.49 756.48C897.533 757.035 897.575 757.589 897.618 758.144C898.045 757.376 898.578 756.757 899.218 756.288C899.858 755.819 900.519 755.435 901.202 755.136C901.885 754.837 902.525 754.624 903.122 754.496C903.762 754.368 904.253 754.304 904.594 754.304C906.215 754.304 907.815 754.667 909.394 755.392C911.015 756.075 912.359 757.056 913.426 758.336C914.023 759.104 914.471 759.915 914.77 760.768C915.111 761.579 915.346 762.432 915.474 763.328C915.645 764.224 915.751 765.141 915.794 766.08C915.837 766.976 915.879 767.893 915.922 768.832C916.135 771.563 916.135 774.272 915.922 776.96C915.879 777.515 915.858 778.155 915.858 778.88C915.858 779.605 915.794 780.331 915.666 781.056C915.581 781.739 915.389 782.357 915.09 782.912C914.834 783.424 914.386 783.744 913.746 783.872C912.85 784.085 912.103 784.128 911.506 784C910.951 783.915 910.503 783.723 910.162 783.424C909.821 783.125 909.565 782.741 909.394 782.272C909.223 781.803 909.074 781.269 908.946 780.672C908.861 780.203 908.775 779.669 908.69 779.072C908.647 778.432 908.605 777.792 908.562 777.152C908.562 776.512 908.541 775.893 908.498 775.296C908.498 774.656 908.498 774.08 908.498 773.568C908.498 772.757 908.477 771.861 908.434 770.88C908.391 769.899 908.391 768.981 908.434 768.128C908.434 766.123 907.901 764.608 906.834 763.584C905.81 762.517 904.402 762.069 902.61 762.24C901.245 762.411 900.05 762.965 899.026 763.904C898.002 764.8 897.511 765.973 897.554 767.424C897.554 767.979 897.554 768.491 897.554 768.96C897.554 769.429 897.533 769.899 897.49 770.368C897.49 770.837 897.49 771.349 897.49 771.904C897.49 772.459 897.49 773.077 897.49 773.76C897.49 775.168 897.49 776.661 897.49 778.24C897.49 779.776 897.298 781.035 896.914 782.016C896.573 783.04 895.997 783.744 895.186 784.128C894.375 784.512 893.415 784.405 892.306 783.808C891.837 783.552 891.453 783.211 891.154 782.784C890.898 782.315 890.685 781.824 890.514 781.312C890.386 780.8 890.301 780.288 890.258 779.776C890.215 779.221 890.173 778.709 890.13 778.24C890.002 776.832 889.917 775.531 889.874 774.336C889.874 773.099 889.874 771.776 889.874 770.368V761.152ZM941.216 739.264C942.026 739.051 942.73 739.029 943.328 739.2C943.968 739.328 944.501 739.605 944.928 740.032C945.397 740.459 945.738 740.992 945.952 741.632C946.208 742.272 946.336 742.976 946.336 743.744C946.378 745.877 946.378 747.541 946.336 748.736C946.336 749.931 946.336 750.976 946.336 751.872V771.52C946.336 773.824 946.336 775.744 946.336 777.28C946.336 778.816 946.25 780.075 946.08 781.056C945.952 781.995 945.696 782.699 945.312 783.168C944.97 783.637 944.437 783.957 943.712 784.128C942.986 784.341 942.026 784.448 940.832 784.448C939.68 784.448 938.229 784.448 936.48 784.448C931.872 784.448 928.224 783.36 925.536 781.184C922.89 779.008 921.482 775.552 921.312 770.816C921.226 768.768 921.482 766.891 922.08 765.184C922.677 763.477 923.552 762.027 924.704 760.832C925.898 759.595 927.349 758.656 929.056 758.016C930.805 757.333 932.789 757.013 935.008 757.056H938.528V745.6C938.528 744.917 938.528 744.256 938.528 743.616C938.528 742.933 938.592 742.315 938.72 741.76C938.848 741.163 939.104 740.651 939.488 740.224C939.872 739.797 940.448 739.477 941.216 739.264ZM930.08 774.784C930.976 776.021 932.597 776.704 934.944 776.832C935.413 776.875 935.861 776.896 936.288 776.896C936.714 776.853 937.098 776.789 937.44 776.704C937.824 776.661 938.186 776.597 938.528 776.512V764.672C937.034 764.416 935.669 764.267 934.432 764.224C933.237 764.139 932.042 764.565 930.848 765.504C930.208 766.016 929.717 766.677 929.376 767.488C929.034 768.256 928.842 769.088 928.8 769.984C928.757 770.837 928.842 771.691 929.056 772.544C929.269 773.397 929.61 774.144 930.08 774.784ZM628.888 835.776C629.229 836.587 629.251 837.483 628.952 838.464C628.696 839.445 628.205 840.085 627.48 840.384C627.096 840.555 626.584 840.704 625.944 840.832C625.304 840.917 624.6 841.003 623.832 841.088C623.107 841.173 622.381 841.237 621.656 841.28C620.931 841.323 620.312 841.344 619.8 841.344C619.843 842.624 619.885 843.947 619.928 845.312C619.971 846.635 620.013 847.936 620.056 849.216C620.099 850.496 620.12 851.733 620.12 852.928C620.12 854.08 620.099 855.125 620.056 856.064C620.056 856.704 620.056 857.451 620.056 858.304C620.056 859.115 619.992 859.904 619.864 860.672C619.779 861.44 619.629 862.123 619.416 862.72C619.203 863.275 618.883 863.637 618.456 863.808C617.133 864.363 615.917 864.512 614.808 864.256C613.741 864.043 612.973 863.595 612.504 862.912C612.163 862.357 611.907 861.717 611.736 860.992C611.565 860.224 611.437 859.456 611.352 858.688C611.309 857.877 611.288 857.109 611.288 856.384C611.331 855.616 611.352 854.955 611.352 854.4C611.395 852.608 611.416 850.581 611.416 848.32C611.459 846.016 611.48 843.712 611.48 841.408H610.52C610.008 841.408 609.347 841.408 608.536 841.408C607.768 841.365 606.979 841.301 606.168 841.216C605.4 841.088 604.675 840.939 603.992 840.768C603.309 840.555 602.819 840.256 602.52 839.872C602.051 839.317 601.752 838.72 601.624 838.08C601.539 837.44 601.581 836.843 601.752 836.288C601.965 835.691 602.285 835.179 602.712 834.752C603.139 834.283 603.629 833.984 604.184 833.856C604.952 833.643 606.04 833.536 607.448 833.536C608.856 833.493 610.179 833.493 611.416 833.536C611.373 833.109 611.352 832.704 611.352 832.32C611.352 831.893 611.331 831.488 611.288 831.104C611.245 830.592 611.224 829.952 611.224 829.184C611.224 828.373 611.267 827.584 611.352 826.816C611.48 826.005 611.672 825.259 611.928 824.576C612.184 823.851 612.547 823.296 613.016 822.912C613.656 822.4 614.296 822.123 614.936 822.08C615.619 821.995 616.237 822.08 616.792 822.336C617.389 822.592 617.88 822.976 618.264 823.488C618.691 823.957 618.989 824.491 619.16 825.088C619.288 825.6 619.395 826.219 619.48 826.944C619.565 827.627 619.608 828.352 619.608 829.12C619.651 829.888 619.672 830.656 619.672 831.424C619.672 832.192 619.672 832.896 619.672 833.536H620.312C620.952 833.536 621.699 833.515 622.552 833.472C623.405 833.429 624.237 833.451 625.048 833.536C625.901 833.621 626.669 833.835 627.352 834.176C628.035 834.475 628.547 835.008 628.888 835.776ZM659.27 851.392C659.313 852.245 659.334 853.141 659.334 854.08C659.334 854.976 659.313 855.808 659.27 856.576C659.227 857.728 659.163 858.795 659.078 859.776C658.993 860.715 658.822 861.525 658.566 862.208C658.31 862.848 657.905 863.339 657.35 863.68C656.838 863.979 656.113 864.064 655.174 863.936C654.193 863.808 653.489 863.339 653.062 862.528C652.635 861.717 652.337 860.8 652.166 859.776C652.038 858.709 651.995 857.643 652.038 856.576C652.081 855.509 652.081 854.677 652.038 854.08C651.995 853.141 651.953 852.075 651.91 850.88C651.91 849.643 651.782 848.491 651.526 847.424C651.313 846.315 650.929 845.376 650.374 844.608C649.819 843.84 648.987 843.435 647.878 843.392C646.47 843.307 645.382 843.413 644.614 843.712C643.889 844.011 643.355 844.459 643.014 845.056C642.673 845.611 642.459 846.293 642.374 847.104C642.331 847.915 642.246 848.789 642.118 849.728L642.054 852.224V856.896C642.054 857.664 642.033 858.475 641.99 859.328C641.99 860.139 641.862 860.885 641.606 861.568C641.35 862.251 640.945 862.827 640.39 863.296C639.878 863.765 639.11 864 638.086 864C636.806 864 635.846 863.595 635.206 862.784C634.609 861.931 634.31 860.885 634.31 859.648V822.848C634.31 822.592 634.31 822.357 634.31 822.144C634.353 821.888 634.395 821.632 634.438 821.376C634.523 821.12 634.587 820.885 634.63 820.672C634.673 820.416 634.737 820.181 634.822 819.968C634.95 819.541 635.163 819.221 635.462 819.008C635.675 818.795 635.889 818.624 636.102 818.496C636.315 818.368 636.55 818.283 636.806 818.24C637.019 818.197 637.254 818.176 637.51 818.176C637.766 818.133 638.022 818.112 638.278 818.112C638.918 818.112 639.537 818.304 640.134 818.688C640.39 818.859 640.625 819.051 640.838 819.264C641.051 819.435 641.222 819.691 641.35 820.032C641.691 820.843 641.862 821.611 641.862 822.336C641.905 822.549 641.926 822.869 641.926 823.296C641.969 823.68 641.99 824.085 641.99 824.512C641.99 824.939 641.99 825.365 641.99 825.792C642.033 826.176 642.054 826.475 642.054 826.688V827.008C642.097 828.373 642.118 829.76 642.118 831.168C642.118 832.576 642.118 834.005 642.118 835.456V836.544C643.91 835.947 645.787 835.669 647.75 835.712C649.713 835.712 651.462 836.096 652.998 836.864C654.577 837.675 655.771 838.592 656.582 839.616C657.435 840.64 658.054 841.771 658.438 843.008C658.822 844.245 659.035 845.568 659.078 846.976C659.163 848.384 659.227 849.856 659.27 851.392ZM671.923 837.056C673.203 836.416 674.547 835.968 675.955 835.712C677.363 835.413 678.75 835.349 680.115 835.52C681.523 835.648 682.867 836.011 684.147 836.608C685.427 837.163 686.622 837.973 687.731 839.04C688.84 840.149 689.694 841.365 690.291 842.688C690.888 844.011 691.315 845.483 691.571 847.104C691.742 848.213 692.019 849.237 692.403 850.176C692.787 851.115 693.192 852.053 693.619 852.992C694.088 853.931 694.515 854.869 694.899 855.808C695.326 856.747 695.667 857.728 695.923 858.752C696.136 859.733 696.051 860.693 695.667 861.632C695.326 862.528 694.6 863.083 693.491 863.296C692.851 863.424 692.232 863.381 691.635 863.168C691.08 862.912 690.568 862.571 690.099 862.144C689.63 861.675 689.203 861.184 688.819 860.672C688.478 860.117 688.158 859.605 687.859 859.136C686.878 860.416 685.811 861.419 684.659 862.144C683.507 862.827 682.12 863.275 680.499 863.488C679.134 863.659 677.832 863.701 676.595 863.616C675.358 863.531 674.035 863.296 672.627 862.912C670.792 862.443 669.278 861.632 668.083 860.48C666.931 859.285 666.035 857.92 665.395 856.384C664.798 854.805 664.478 853.12 664.435 851.328C664.392 849.536 664.606 847.765 665.075 846.016C665.672 843.712 666.568 841.835 667.763 840.384C668.958 838.933 670.344 837.824 671.923 837.056ZM673.523 844.544C672.926 845.141 672.456 845.845 672.115 846.656C671.774 847.467 671.56 848.32 671.475 849.216C671.432 850.112 671.518 851.008 671.731 851.904C671.944 852.8 672.286 853.589 672.755 854.272C673.182 854.869 673.907 855.381 674.931 855.808C675.955 856.192 677.022 856.427 678.131 856.512C679.411 856.597 680.52 856.256 681.459 855.488C682.44 854.72 683.166 853.76 683.635 852.608C684.147 851.413 684.382 850.155 684.339 848.832C684.296 847.467 683.934 846.229 683.251 845.12C682.739 844.309 682.056 843.712 681.203 843.328C680.392 842.944 679.518 842.752 678.579 842.752C677.64 842.709 676.702 842.859 675.763 843.2C674.867 843.499 674.12 843.947 673.523 844.544ZM721.013 835.776C721.354 836.587 721.376 837.483 721.077 838.464C720.821 839.445 720.33 840.085 719.605 840.384C719.221 840.555 718.709 840.704 718.069 840.832C717.429 840.917 716.725 841.003 715.957 841.088C715.232 841.173 714.506 841.237 713.781 841.28C713.056 841.323 712.437 841.344 711.925 841.344C711.968 842.624 712.01 843.947 712.053 845.312C712.096 846.635 712.138 847.936 712.181 849.216C712.224 850.496 712.245 851.733 712.245 852.928C712.245 854.08 712.224 855.125 712.181 856.064C712.181 856.704 712.181 857.451 712.181 858.304C712.181 859.115 712.117 859.904 711.989 860.672C711.904 861.44 711.754 862.123 711.541 862.72C711.328 863.275 711.008 863.637 710.581 863.808C709.258 864.363 708.042 864.512 706.933 864.256C705.866 864.043 705.098 863.595 704.629 862.912C704.288 862.357 704.032 861.717 703.861 860.992C703.69 860.224 703.562 859.456 703.477 858.688C703.434 857.877 703.413 857.109 703.413 856.384C703.456 855.616 703.477 854.955 703.477 854.4C703.52 852.608 703.541 850.581 703.541 848.32C703.584 846.016 703.605 843.712 703.605 841.408H702.645C702.133 841.408 701.472 841.408 700.661 841.408C699.893 841.365 699.104 841.301 698.293 841.216C697.525 841.088 696.8 840.939 696.117 840.768C695.434 840.555 694.944 840.256 694.645 839.872C694.176 839.317 693.877 838.72 693.749 838.08C693.664 837.44 693.706 836.843 693.877 836.288C694.09 835.691 694.41 835.179 694.837 834.752C695.264 834.283 695.754 833.984 696.309 833.856C697.077 833.643 698.165 833.536 699.573 833.536C700.981 833.493 702.304 833.493 703.541 833.536C703.498 833.109 703.477 832.704 703.477 832.32C703.477 831.893 703.456 831.488 703.413 831.104C703.37 830.592 703.349 829.952 703.349 829.184C703.349 828.373 703.392 827.584 703.477 826.816C703.605 826.005 703.797 825.259 704.053 824.576C704.309 823.851 704.672 823.296 705.141 822.912C705.781 822.4 706.421 822.123 707.061 822.08C707.744 821.995 708.362 822.08 708.917 822.336C709.514 822.592 710.005 822.976 710.389 823.488C710.816 823.957 711.114 824.491 711.285 825.088C711.413 825.6 711.52 826.219 711.605 826.944C711.69 827.627 711.733 828.352 711.733 829.12C711.776 829.888 711.797 830.656 711.797 831.424C711.797 832.192 711.797 832.896 711.797 833.536H712.437C713.077 833.536 713.824 833.515 714.677 833.472C715.53 833.429 716.362 833.451 717.173 833.536C718.026 833.621 718.794 833.835 719.477 834.176C720.16 834.475 720.672 835.008 721.013 835.776ZM763.543 835.2C764.78 835.712 765.911 836.459 766.935 837.44C767.959 838.379 768.833 839.467 769.559 840.704C770.327 841.941 770.903 843.285 771.287 844.736C771.713 846.144 771.927 847.573 771.927 849.024C771.969 851.2 771.457 853.248 770.391 855.168C769.367 857.088 767.681 858.56 765.335 859.584C763.543 860.309 761.687 860.864 759.767 861.248C757.889 861.589 755.927 861.824 753.879 861.952V873.664C753.879 873.92 753.836 874.155 753.751 874.368C753.708 874.581 753.687 874.795 753.687 875.008C753.601 875.435 753.495 875.819 753.367 876.16C753.281 876.501 753.153 876.864 752.983 877.248C752.812 877.504 752.641 877.739 752.47 877.952C752.3 878.165 752.108 878.379 751.895 878.592C750.871 879.104 749.804 879.211 748.695 878.912C748.012 878.869 747.457 878.656 747.031 878.272C746.647 877.888 746.369 877.483 746.199 877.056C746.028 876.629 745.879 876.139 745.751 875.584C745.708 875.371 745.665 875.157 745.623 874.944C745.623 874.773 745.623 874.581 745.623 874.368V838.72C745.623 838.464 745.623 838.208 745.623 837.952C745.665 837.653 745.708 837.355 745.751 837.056C745.793 836.544 745.921 836.032 746.135 835.52C746.519 834.453 747.308 833.728 748.503 833.344C749.697 832.96 751.041 832.789 752.535 832.832C753.559 832.875 754.604 832.981 755.671 833.152C756.78 833.323 757.825 833.536 758.807 833.792C759.831 834.005 760.748 834.24 761.559 834.496C762.369 834.752 763.031 834.987 763.543 835.2ZM763.671 849.024C763.841 847.829 763.692 846.827 763.223 846.016C762.796 845.163 762.177 844.48 761.367 843.968C760.556 843.413 759.617 842.987 758.551 842.688C757.527 842.389 756.503 842.176 755.479 842.048C755.351 842.005 755.137 841.984 754.839 841.984C754.583 841.984 754.284 841.984 753.943 841.984C753.943 843.349 753.943 844.672 753.943 845.952C753.985 847.189 753.985 848.533 753.943 849.984V854.272C754.924 854.229 755.948 854.123 757.015 853.952C758.124 853.781 759.148 853.504 760.087 853.12C761.025 852.736 761.815 852.224 762.455 851.584C763.137 850.944 763.543 850.091 763.671 849.024ZM784.611 837.056C785.891 836.416 787.235 835.968 788.643 835.712C790.051 835.413 791.437 835.349 792.803 835.52C794.211 835.648 795.555 836.011 796.835 836.608C798.115 837.163 799.309 837.973 800.419 839.04C801.528 840.149 802.381 841.365 802.979 842.688C803.576 844.011 804.003 845.483 804.259 847.104C804.429 848.213 804.707 849.237 805.091 850.176C805.475 851.115 805.88 852.053 806.307 852.992C806.776 853.931 807.203 854.869 807.587 855.808C808.013 856.747 808.355 857.728 808.611 858.752C808.824 859.733 808.738 860.693 808.354 861.632C808.013 862.528 807.288 863.083 806.179 863.296C805.539 863.424 804.92 863.381 804.323 863.168C803.768 862.912 803.256 862.571 802.787 862.144C802.317 861.675 801.891 861.184 801.507 860.672C801.165 860.117 800.845 859.605 800.547 859.136C799.565 860.416 798.499 861.419 797.347 862.144C796.195 862.827 794.808 863.275 793.187 863.488C791.821 863.659 790.52 863.701 789.283 863.616C788.045 863.531 786.723 863.296 785.315 862.912C783.48 862.443 781.965 861.632 780.771 860.48C779.619 859.285 778.723 857.92 778.083 856.384C777.485 854.805 777.165 853.12 777.123 851.328C777.08 849.536 777.293 847.765 777.763 846.016C778.36 843.712 779.256 841.835 780.451 840.384C781.645 838.933 783.032 837.824 784.611 837.056ZM786.211 844.544C785.613 845.141 785.144 845.845 784.803 846.656C784.461 847.467 784.248 848.32 784.163 849.216C784.12 850.112 784.205 851.008 784.419 851.904C784.632 852.8 784.973 853.589 785.443 854.272C785.869 854.869 786.595 855.381 787.619 855.808C788.643 856.192 789.709 856.427 790.819 856.512C792.099 856.597 793.208 856.256 794.147 855.488C795.128 854.72 795.853 853.76 796.323 852.608C796.835 851.413 797.069 850.155 797.027 848.832C796.984 847.467 796.621 846.229 795.939 845.12C795.427 844.309 794.744 843.712 793.891 843.328C793.08 842.944 792.205 842.752 791.267 842.752C790.328 842.709 789.389 842.859 788.451 843.2C787.555 843.499 786.808 843.947 786.211 844.544ZM840.495 851.904C840.495 853.269 840.452 854.741 840.367 856.32C840.324 857.899 840.26 859.371 840.175 860.736C840.175 862.016 840.111 863.296 839.983 864.576C839.898 865.685 839.727 866.88 839.471 868.16C839.215 869.483 838.852 870.699 838.383 871.808C837.786 873.259 836.975 874.496 835.951 875.52C834.927 876.587 833.604 877.355 831.983 877.824C830.618 878.165 829.338 878.379 828.143 878.464C826.948 878.592 825.668 878.571 824.303 878.4C823.407 878.272 822.447 878.016 821.423 877.632C820.399 877.291 819.439 876.843 818.543 876.288C817.647 875.733 816.858 875.072 816.175 874.304C815.492 873.579 815.023 872.747 814.767 871.808C814.468 870.656 814.447 869.653 814.703 868.8C815.002 867.947 815.45 867.328 816.047 866.944C816.644 866.56 817.348 866.496 818.159 866.752C818.97 867.008 819.738 867.669 820.463 868.736C820.975 869.504 821.722 870.123 822.703 870.592C823.684 871.061 824.73 871.339 825.839 871.424C826.948 871.509 828.015 871.36 829.039 870.976C830.106 870.635 830.938 870.016 831.535 869.12C831.962 868.48 832.26 867.563 832.431 866.368C832.644 865.173 832.772 864 832.815 862.848C830.639 863.744 828.399 864.085 826.095 863.872C823.834 863.616 821.764 862.912 819.887 861.76C818.052 860.565 816.559 858.987 815.407 857.024C814.298 855.019 813.828 852.757 813.999 850.24C814.127 848.064 814.575 846.016 815.343 844.096C816.154 842.176 817.476 840.576 819.311 839.296C820.804 838.272 822.49 837.611 824.367 837.312C826.244 836.971 828.058 836.8 829.807 836.8C830.831 836.8 831.834 836.8 832.815 836.8C833.839 836.8 834.778 836.928 835.631 837.184C836.484 837.44 837.252 837.867 837.935 838.464C838.618 839.061 839.13 839.936 839.471 841.088C840.026 842.88 840.324 844.651 840.367 846.4C840.452 848.149 840.495 849.984 840.495 851.904ZM828.143 857.216C828.57 857.216 828.975 857.173 829.359 857.088C829.786 857.003 830.191 856.896 830.575 856.768C831.3 856.512 831.834 856.171 832.175 855.744C832.559 855.317 832.815 854.848 832.943 854.336C833.071 853.781 833.114 853.184 833.071 852.544C833.071 851.904 833.071 851.243 833.071 850.56C833.071 850.005 833.05 849.387 833.007 848.704C833.007 848.021 832.964 847.381 832.879 846.784C832.794 846.144 832.666 845.589 832.495 845.12C832.324 844.651 832.068 844.352 831.727 844.224C831.13 844.053 830.447 843.947 829.679 843.904C828.911 843.819 828.143 843.819 827.375 843.904C826.607 843.947 825.86 844.096 825.135 844.352C824.452 844.565 823.876 844.864 823.407 845.248C822.767 845.803 822.276 846.485 821.935 847.296C821.594 848.107 821.38 848.96 821.295 849.856C821.252 850.752 821.316 851.627 821.487 852.48C821.7 853.333 822.063 854.101 822.575 854.784C823.172 855.637 823.983 856.256 825.007 856.64C826.031 857.024 827.076 857.216 828.143 857.216ZM867.829 855.232C868.341 855.104 868.853 855.019 869.365 854.976C869.92 854.933 870.41 854.997 870.837 855.168C871.306 855.339 871.69 855.637 871.989 856.064C872.288 856.448 872.437 857.003 872.437 857.728C872.437 858.24 872.309 858.731 872.053 859.2C871.797 859.669 871.477 860.096 871.093 860.48C870.709 860.864 870.282 861.205 869.813 861.504C869.344 861.76 868.896 861.973 868.469 862.144C867.232 862.699 865.802 863.125 864.181 863.424C862.602 863.723 860.96 863.829 859.253 863.744C856.949 863.659 854.73 863.211 852.597 862.4C850.506 861.547 848.864 860.16 847.669 858.24C846.56 856.363 845.898 854.272 845.685 851.968C845.472 849.664 845.578 847.488 846.005 845.44C846.474 842.965 847.264 840.96 848.373 839.424C849.525 837.845 850.89 836.587 852.469 835.648C854.389 834.539 856.544 833.963 858.933 833.92C861.322 833.877 863.605 834.347 865.781 835.328C867.232 835.968 868.533 836.843 869.685 837.952C870.837 839.019 871.712 840.32 872.309 841.856C872.48 842.24 872.608 842.709 872.693 843.264C872.821 843.819 872.906 844.416 872.949 845.056C872.992 845.653 872.992 846.251 872.949 846.848C872.906 847.445 872.8 847.979 872.629 848.448C872.373 849.216 872.053 849.813 871.669 850.24C871.285 850.667 870.794 850.987 870.197 851.2C869.6 851.413 868.874 851.563 868.021 851.648C867.21 851.691 866.229 851.733 865.077 851.776C864.053 851.819 863.093 851.84 862.197 851.84C861.301 851.84 860.384 851.84 859.445 851.84C858.506 851.797 857.525 851.776 856.501 851.776C855.52 851.733 854.41 851.691 853.173 851.648C853.045 852.501 853.152 853.248 853.493 853.888C853.877 854.485 854.389 854.997 855.029 855.424C855.669 855.808 856.394 856.107 857.205 856.32C858.016 856.533 858.805 856.661 859.573 856.704C861.024 856.789 862.41 856.683 863.733 856.384C865.056 856.043 866.421 855.659 867.829 855.232ZM865.077 842.816C864.266 841.877 863.413 841.195 862.517 840.768C861.834 840.469 861.109 840.341 860.341 840.384C859.616 840.384 858.912 840.491 858.229 840.704C856.992 841.003 855.946 841.643 855.093 842.624C855.008 842.709 854.858 842.923 854.645 843.264C854.432 843.563 854.218 843.883 854.005 844.224C853.834 844.565 853.706 844.885 853.621 845.184C853.536 845.483 853.578 845.632 853.749 845.632H866.293C866.25 845.035 866.144 844.544 865.973 844.16C865.802 843.733 865.504 843.285 865.077 842.816ZM885.995 864C885.995 865.109 885.589 866.048 884.779 866.816C884.011 867.627 883.072 868.032 881.963 868.032C880.853 868.032 879.893 867.627 879.083 866.816C878.315 866.048 877.931 865.109 877.931 864C877.931 862.891 878.315 861.931 879.083 861.12C879.893 860.309 880.853 859.904 881.963 859.904C883.072 859.904 884.011 860.309 884.779 861.12C885.589 861.931 885.995 862.891 885.995 864Z" fill="#332D07"/>
<path d="M260 211.8C261.867 214.733 263.067 218.467 263.6 223C264.933 232.333 265.467 241.933 265.2 251.8C265.2 261.4 265.333 270.867 265.6 280.2C265.6 291.133 265.6 301.933 265.6 312.6C265.867 323.267 266 334.067 266 345V379H283.2C286.133 379 289.2 379.4 292.4 380.2C295.6 380.733 298.533 381.8 301.2 383.4C303.867 385 306.133 387 308 389.4C309.867 391.8 310.933 394.733 311.2 398.2C311.2 406.733 308.533 412.6 303.2 415.8C297.867 418.733 291.467 420.467 284 421C283.467 421 282.267 421.133 280.4 421.4C278.8 421.4 276.933 421.4 274.8 421.4C272.667 421.4 270.667 421.4 268.8 421.4C267.2 421.4 266.267 421.133 266 420.6V447.8C266 450.733 266 454.067 266 457.8C266 461.533 265.733 465.267 265.2 469C264.667 472.467 263.6 475.8 262 479C260.667 482.2 258.533 484.733 255.6 486.6C254.267 487.4 252.533 488.067 250.4 488.6C248.533 488.867 246.4 489.133 244 489.4C241.6 489.667 239.2 489.8 236.8 489.8C234.667 489.533 232.8 489.133 231.2 488.6C226.4 487 223.333 483.667 222 478.6C220.667 473.267 219.733 468.333 219.2 463.8C219.2 463 219.2 460.467 219.2 456.2C219.2 451.667 219.2 447 219.2 442.2C219.2 437.133 219.067 432.6 218.8 428.6C218.533 424.6 218.133 422.6 217.6 422.6H147.2C139.467 422.6 131.333 422.467 122.8 422.2C114.267 421.933 106.933 419.533 100.8 415C96 411.533 93.2 407.667 92.4 403.4C91.6 398.867 91.8667 394.467 93.2 390.2C94.8 385.667 97.0667 381.267 100 377C102.933 372.733 105.733 368.867 108.4 365.4C118.533 351.8 128.267 337.933 137.6 323.8C147.2 309.667 156.8 295.667 166.4 281.8C171.733 274.6 177.2 267.667 182.8 261C188.667 254.333 194.133 247.4 199.2 240.2C202.933 234.6 206.933 228.867 211.2 223C215.733 217.133 221.333 212.6 228 209.4C234.4 206.467 240.533 205 246.4 205C252.267 205 256.8 207.267 260 211.8ZM220.4 283.8L154 377.4H220.4V283.8ZM449.972 489.8C445.172 489.8 440.239 489.533 435.172 489C430.372 488.2 425.572 486.867 420.772 485C413.572 482.067 406.639 478.2 399.972 473.4C393.572 468.333 387.705 462.733 382.372 456.6C369.572 442.2 359.839 425.267 353.172 405.8C346.505 386.067 343.172 366.067 343.172 345.8C343.172 318.067 348.505 291.267 359.172 265.4C361.039 260.867 363.439 256.067 366.372 251C369.572 245.933 373.039 241.133 376.772 236.6C380.772 231.8 384.772 227.533 388.772 223.8C393.039 220.067 397.305 217.267 401.572 215.4C407.439 212.733 413.839 210.067 420.772 207.4C429.305 204.733 438.905 203.533 449.572 203.8C460.239 204.067 469.972 205.267 478.772 207.4C491.039 210.333 501.572 215.667 510.372 223.4C519.172 230.867 526.639 239.933 532.772 250.6C538.905 261 543.705 272.467 547.172 285C550.639 297.267 553.172 309.8 554.772 322.6C555.839 331.133 556.239 339.667 555.972 348.2C555.705 356.467 555.039 364.867 553.972 373.4C552.905 381.133 551.572 388.867 549.972 396.6C548.639 404.333 546.772 411.8 544.372 419C541.972 426.2 538.905 433.133 535.172 439.8C531.439 446.2 526.772 452.2 521.172 457.8C511.039 467.667 499.972 475.4 487.972 481C476.239 486.333 463.572 489.267 449.972 489.8ZM449.572 256.6C445.839 256.6 442.105 257 438.372 257.8C434.905 258.333 431.572 259.667 428.372 261.8C424.639 264.2 421.305 267.133 418.372 270.6C415.439 274.067 412.905 277.667 410.772 281.4C405.172 291 401.305 301.267 399.172 312.2C397.039 323.133 395.972 334.2 395.972 345.4C395.972 356.867 397.172 368.733 399.572 381C402.239 393.267 406.905 404.467 413.572 414.6C416.772 419.4 420.505 423.667 424.772 427.4C429.305 430.867 434.505 433.4 440.372 435C445.705 436.333 451.039 436.733 456.372 436.2C461.972 435.667 467.172 433.933 471.972 431C479.705 426.2 485.839 419.8 490.372 411.8C494.905 403.8 498.239 395.133 500.372 385.8C502.772 376.467 504.105 366.867 504.372 357C504.905 347.133 504.905 338.2 504.372 330.2C503.839 322.2 502.505 313.8 500.372 305C498.239 296.2 495.039 288.2 490.772 281C486.772 273.8 481.305 267.933 474.372 263.4C467.705 258.6 459.439 256.333 449.572 256.6ZM756.094 211.8C757.96 214.733 759.16 218.467 759.694 223C761.027 232.333 761.56 241.933 761.294 251.8C761.294 261.4 761.427 270.867 761.694 280.2C761.694 291.133 761.694 301.933 761.694 312.6C761.96 323.267 762.094 334.067 762.094 345V379H779.294C782.227 379 785.294 379.4 788.494 380.2C791.694 380.733 794.627 381.8 797.294 383.4C799.96 385 802.227 387 804.094 389.4C805.96 391.8 807.027 394.733 807.294 398.2C807.294 406.733 804.627 412.6 799.294 415.8C793.96 418.733 787.56 420.467 780.094 421C779.56 421 778.36 421.133 776.494 421.4C774.894 421.4 773.027 421.4 770.894 421.4C768.76 421.4 766.76 421.4 764.894 421.4C763.294 421.4 762.36 421.133 762.094 420.6V447.8C762.094 450.733 762.094 454.067 762.094 457.8C762.094 461.533 761.827 465.267 761.294 469C760.76 472.467 759.694 475.8 758.094 479C756.76 482.2 754.627 484.733 751.694 486.6C750.36 487.4 748.627 488.067 746.494 488.6C744.627 488.867 742.494 489.133 740.094 489.4C737.694 489.667 735.294 489.8 732.894 489.8C730.76 489.533 728.894 489.133 727.294 488.6C722.494 487 719.427 483.667 718.094 478.6C716.76 473.267 715.827 468.333 715.294 463.8C715.294 463 715.294 460.467 715.294 456.2C715.294 451.667 715.294 447 715.294 442.2C715.294 437.133 715.16 432.6 714.894 428.6C714.627 424.6 714.227 422.6 713.694 422.6H643.294C635.56 422.6 627.427 422.467 618.894 422.2C610.36 421.933 603.027 419.533 596.894 415C592.094 411.533 589.294 407.667 588.494 403.4C587.694 398.867 587.96 394.467 589.294 390.2C590.894 385.667 593.16 381.267 596.094 377C599.027 372.733 601.827 368.867 604.494 365.4C614.627 351.8 624.36 337.933 633.694 323.8C643.294 309.667 652.894 295.667 662.494 281.8C667.827 274.6 673.294 267.667 678.894 261C684.76 254.333 690.227 247.4 695.294 240.2C699.027 234.6 703.027 228.867 707.294 223C711.827 217.133 717.427 212.6 724.094 209.4C730.494 206.467 736.627 205 742.494 205C748.36 205 752.894 207.267 756.094 211.8ZM716.494 283.8L650.094 377.4H716.494V283.8Z" fill="#17DA1A"/>
<defs>
<linearGradient id="paint0_linear_44_6" x1="313.679" y1="802.441" x2="637.679" y2="1318.44" gradientUnits="userSpaceOnUse">
<stop stop-color="#0DD417"/>
<stop offset="1" stop-color="#25C72D"/>
</linearGradient>
<clipPath id="clip0_44_6">
<rect width="101" height="105" fill="white" transform="translate(440 738)"/>
</clipPath>
</defs>
</svg>
