<svg width="604" height="343" viewBox="0 0 604 343" fill="none" xmlns="http://www.w3.org/2000/svg">
<rect x="47.5" y="94.5" width="405" height="249" rx="22.5" fill="white" stroke="#BCBCBC"/>
<rect x="67" y="110" width="371" height="153" rx="16" fill="#D9D9D9"/>
<rect x="368" y="279" width="70" height="49" rx="11" fill="#0A6C08"/>
<path d="M411 295L394 302L401 305L404 312L411 295Z" stroke="white" stroke-width="1.5" stroke-linejoin="round"/>
<path d="M79.7244 129.263V128.091H87.9062V129.263H84.4759V139H83.1548V129.263H79.7244ZM89.6468 142.068C89.4337 142.068 89.2437 142.05 89.0768 142.015C88.9099 141.983 88.7945 141.951 88.7306 141.919L89.0502 140.811C89.3556 140.889 89.6254 140.918 89.8598 140.896C90.0942 140.875 90.3019 140.77 90.483 140.582C90.6677 140.397 90.8364 140.097 90.9891 139.682L91.2235 139.043L88.1979 130.818H89.5615L91.82 137.338H91.9053L94.1638 130.818H95.5274L92.0544 140.193C91.8982 140.616 91.7046 140.966 91.4738 141.243C91.243 141.523 90.9749 141.731 90.6695 141.866C90.3676 142.001 90.0267 142.068 89.6468 142.068ZM97.1867 142.068V130.818H98.4012V132.118H98.5503C98.6427 131.976 98.7705 131.795 98.9339 131.575C99.1008 131.351 99.3387 131.152 99.6476 130.978C99.9601 130.8 100.383 130.712 100.915 130.712C101.604 130.712 102.212 130.884 102.737 131.228C103.263 131.573 103.673 132.061 103.968 132.693C104.262 133.325 104.41 134.071 104.41 134.93C104.41 135.797 104.262 136.548 103.968 137.184C103.673 137.816 103.264 138.306 102.742 138.654C102.22 138.998 101.619 139.17 100.937 139.17C100.411 139.17 99.9903 139.083 99.6743 138.909C99.3582 138.732 99.115 138.531 98.9445 138.308C98.7741 138.08 98.6427 137.892 98.5503 137.743H98.4438V142.068H97.1867ZM98.4225 134.909C98.4225 135.527 98.5131 136.072 98.6942 136.544C98.8753 137.013 99.1398 137.381 99.4878 137.647C99.8358 137.91 100.262 138.041 100.766 138.041C101.292 138.041 101.73 137.903 102.082 137.626C102.437 137.345 102.703 136.969 102.881 136.496C103.062 136.021 103.153 135.491 103.153 134.909C103.153 134.334 103.064 133.815 102.886 133.354C102.712 132.888 102.448 132.521 102.093 132.251C101.741 131.978 101.299 131.841 100.766 131.841C100.255 131.841 99.8252 131.971 99.4772 132.23C99.1292 132.485 98.8664 132.844 98.6888 133.306C98.5113 133.764 98.4225 134.298 98.4225 134.909ZM106.327 139V130.818H107.584V139H106.327ZM106.967 129.455C106.722 129.455 106.51 129.371 106.333 129.204C106.159 129.037 106.072 128.837 106.072 128.602C106.072 128.368 106.159 128.167 106.333 128C106.51 127.833 106.722 127.75 106.967 127.75C107.212 127.75 107.421 127.833 107.595 128C107.773 128.167 107.861 128.368 107.861 128.602C107.861 128.837 107.773 129.037 107.595 129.204C107.421 129.371 107.212 129.455 106.967 129.455ZM111.144 134.078V139H109.887V130.818H111.101V132.097H111.208C111.4 131.681 111.691 131.347 112.081 131.095C112.472 130.839 112.976 130.712 113.594 130.712C114.148 130.712 114.633 130.825 115.048 131.053C115.464 131.276 115.787 131.617 116.018 132.075C116.249 132.53 116.364 133.105 116.364 133.801V139H115.107V133.886C115.107 133.244 114.94 132.743 114.606 132.384C114.273 132.022 113.814 131.841 113.232 131.841C112.831 131.841 112.472 131.928 112.156 132.102C111.844 132.276 111.597 132.53 111.416 132.864C111.235 133.197 111.144 133.602 111.144 134.078ZM121.964 142.239C121.357 142.239 120.835 142.161 120.398 142.004C119.961 141.852 119.597 141.649 119.306 141.397C119.018 141.148 118.789 140.882 118.619 140.598L119.62 139.895C119.734 140.044 119.878 140.214 120.052 140.406C120.226 140.602 120.464 140.77 120.765 140.912C121.071 141.058 121.47 141.131 121.964 141.131C122.624 141.131 123.169 140.971 123.599 140.651C124.029 140.332 124.244 139.831 124.244 139.149V137.487H124.137C124.045 137.636 123.913 137.821 123.743 138.041C123.576 138.258 123.335 138.451 123.019 138.622C122.706 138.789 122.283 138.872 121.751 138.872C121.09 138.872 120.497 138.716 119.972 138.403C119.45 138.091 119.036 137.636 118.731 137.04C118.429 136.443 118.278 135.719 118.278 134.866C118.278 134.028 118.425 133.299 118.72 132.677C119.015 132.052 119.425 131.569 119.95 131.228C120.476 130.884 121.083 130.712 121.772 130.712C122.305 130.712 122.727 130.8 123.04 130.978C123.356 131.152 123.597 131.351 123.764 131.575C123.935 131.795 124.066 131.976 124.158 132.118H124.286V130.818H125.501V139.234C125.501 139.938 125.341 140.509 125.021 140.95C124.705 141.393 124.279 141.718 123.743 141.924C123.21 142.134 122.617 142.239 121.964 142.239ZM121.921 137.743C122.426 137.743 122.852 137.627 123.2 137.397C123.548 137.166 123.812 136.834 123.993 136.401C124.174 135.967 124.265 135.449 124.265 134.845C124.265 134.256 124.176 133.735 123.999 133.284C123.821 132.833 123.558 132.48 123.21 132.224C122.862 131.969 122.433 131.841 121.921 131.841C121.389 131.841 120.945 131.976 120.59 132.246C120.238 132.516 119.973 132.878 119.796 133.332C119.622 133.787 119.535 134.291 119.535 134.845C119.535 135.413 119.624 135.916 119.801 136.353C119.982 136.786 120.249 137.127 120.6 137.375C120.955 137.62 121.396 137.743 121.921 137.743ZM132.83 142.068C132.617 142.068 132.427 142.05 132.26 142.015C132.093 141.983 131.978 141.951 131.914 141.919L132.234 140.811C132.539 140.889 132.809 140.918 133.043 140.896C133.278 140.875 133.486 140.77 133.667 140.582C133.851 140.397 134.02 140.097 134.173 139.682L134.407 139.043L131.381 130.818H132.745L135.004 137.338H135.089L137.347 130.818H138.711L135.238 140.193C135.082 140.616 134.888 140.966 134.657 141.243C134.427 141.523 134.158 141.731 133.853 141.866C133.551 142.001 133.21 142.068 132.83 142.068ZM143.401 139.17C142.663 139.17 142.014 138.995 141.457 138.643C140.903 138.292 140.47 137.8 140.157 137.168C139.848 136.536 139.694 135.797 139.694 134.952C139.694 134.099 139.848 133.355 140.157 132.72C140.47 132.084 140.903 131.591 141.457 131.239C142.014 130.887 142.663 130.712 143.401 130.712C144.14 130.712 144.786 130.887 145.34 131.239C145.898 131.591 146.331 132.084 146.64 132.72C146.952 133.355 147.109 134.099 147.109 134.952C147.109 135.797 146.952 136.536 146.64 137.168C146.331 137.8 145.898 138.292 145.34 138.643C144.786 138.995 144.14 139.17 143.401 139.17ZM143.401 138.041C143.962 138.041 144.424 137.897 144.786 137.61C145.148 137.322 145.416 136.944 145.59 136.475C145.764 136.006 145.851 135.499 145.851 134.952C145.851 134.405 145.764 133.895 145.59 133.423C145.416 132.951 145.148 132.569 144.786 132.278C144.424 131.987 143.962 131.841 143.401 131.841C142.84 131.841 142.378 131.987 142.016 132.278C141.654 132.569 141.386 132.951 141.212 133.423C141.038 133.895 140.951 134.405 140.951 134.952C140.951 135.499 141.038 136.006 141.212 136.475C141.386 136.944 141.654 137.322 142.016 137.61C142.378 137.897 142.84 138.041 143.401 138.041ZM154.184 135.655V130.818H155.441V139H154.184V137.615H154.099C153.907 138.031 153.608 138.384 153.204 138.675C152.799 138.963 152.287 139.107 151.67 139.107C151.158 139.107 150.704 138.995 150.306 138.771C149.908 138.544 149.596 138.203 149.368 137.748C149.141 137.29 149.028 136.713 149.028 136.017V130.818H150.285V135.932C150.285 136.528 150.452 137.004 150.785 137.359C151.123 137.714 151.552 137.892 152.074 137.892C152.387 137.892 152.705 137.812 153.028 137.652C153.355 137.493 153.628 137.248 153.848 136.917C154.072 136.587 154.184 136.166 154.184 135.655ZM157.743 139V130.818H158.958V132.054H159.043C159.192 131.649 159.462 131.321 159.853 131.069C160.243 130.816 160.684 130.69 161.174 130.69C161.266 130.69 161.381 130.692 161.52 130.696C161.658 130.699 161.763 130.705 161.834 130.712V131.99C161.792 131.979 161.694 131.963 161.541 131.942C161.392 131.917 161.234 131.905 161.067 131.905C160.669 131.905 160.314 131.988 160.002 132.155C159.693 132.319 159.448 132.546 159.267 132.837C159.089 133.125 159 133.453 159 133.822V139H157.743ZM167.543 142.068V130.818H168.758V132.118H168.907C168.999 131.976 169.127 131.795 169.29 131.575C169.457 131.351 169.695 131.152 170.004 130.978C170.317 130.8 170.739 130.712 171.272 130.712C171.961 130.712 172.568 130.884 173.094 131.228C173.619 131.573 174.029 132.061 174.324 132.693C174.619 133.325 174.766 134.071 174.766 134.93C174.766 135.797 174.619 136.548 174.324 137.184C174.029 137.816 173.621 138.306 173.099 138.654C172.577 138.998 171.975 139.17 171.293 139.17C170.768 139.17 170.347 139.083 170.031 138.909C169.715 138.732 169.471 138.531 169.301 138.308C169.131 138.08 168.999 137.892 168.907 137.743H168.8V142.068H167.543ZM168.779 134.909C168.779 135.527 168.869 136.072 169.051 136.544C169.232 137.013 169.496 137.381 169.844 137.647C170.192 137.91 170.618 138.041 171.123 138.041C171.648 138.041 172.087 137.903 172.438 137.626C172.794 137.345 173.06 136.969 173.237 136.496C173.419 136.021 173.509 135.491 173.509 134.909C173.509 134.334 173.42 133.815 173.243 133.354C173.069 132.888 172.804 132.521 172.449 132.251C172.097 131.978 171.655 131.841 171.123 131.841C170.611 131.841 170.182 131.971 169.834 132.23C169.486 132.485 169.223 132.844 169.045 133.306C168.868 133.764 168.779 134.298 168.779 134.909ZM176.684 139V130.818H177.898V132.054H177.983C178.133 131.649 178.403 131.321 178.793 131.069C179.184 130.816 179.624 130.69 180.114 130.69C180.206 130.69 180.322 130.692 180.46 130.696C180.599 130.699 180.704 130.705 180.775 130.712V131.99C180.732 131.979 180.634 131.963 180.482 131.942C180.333 131.917 180.175 131.905 180.008 131.905C179.61 131.905 179.255 131.988 178.942 132.155C178.633 132.319 178.388 132.546 178.207 132.837C178.03 133.125 177.941 133.453 177.941 133.822V139H176.684ZM185.34 139.17C184.601 139.17 183.953 138.995 183.395 138.643C182.841 138.292 182.408 137.8 182.096 137.168C181.787 136.536 181.632 135.797 181.632 134.952C181.632 134.099 181.787 133.355 182.096 132.72C182.408 132.084 182.841 131.591 183.395 131.239C183.953 130.887 184.601 130.712 185.34 130.712C186.078 130.712 186.725 130.887 187.279 131.239C187.836 131.591 188.269 132.084 188.578 132.72C188.891 133.355 189.047 134.099 189.047 134.952C189.047 135.797 188.891 136.536 188.578 137.168C188.269 137.8 187.836 138.292 187.279 138.643C186.725 138.995 186.078 139.17 185.34 139.17ZM185.34 138.041C185.901 138.041 186.362 137.897 186.725 137.61C187.087 137.322 187.355 136.944 187.529 136.475C187.703 136.006 187.79 135.499 187.79 134.952C187.79 134.405 187.703 133.895 187.529 133.423C187.355 132.951 187.087 132.569 186.725 132.278C186.362 131.987 185.901 131.841 185.34 131.841C184.779 131.841 184.317 131.987 183.955 132.278C183.593 132.569 183.324 132.951 183.15 133.423C182.976 133.895 182.889 134.405 182.889 134.952C182.889 135.499 182.976 136.006 183.15 136.475C183.324 136.944 183.593 137.322 183.955 137.61C184.317 137.897 184.779 138.041 185.34 138.041ZM190.966 130.818H192.223V139.597C192.223 140.101 192.136 140.538 191.962 140.907C191.792 141.276 191.532 141.562 191.184 141.765C190.84 141.967 190.405 142.068 189.879 142.068C189.837 142.068 189.794 142.068 189.752 142.068C189.709 142.068 189.666 142.068 189.624 142.068V140.896C189.666 140.896 189.705 140.896 189.741 140.896C189.776 140.896 189.815 140.896 189.858 140.896C190.242 140.896 190.522 140.783 190.7 140.555C190.877 140.332 190.966 140.012 190.966 139.597V130.818ZM191.584 129.455C191.339 129.455 191.128 129.371 190.95 129.204C190.776 129.037 190.689 128.837 190.689 128.602C190.689 128.368 190.776 128.167 190.95 128C191.128 127.833 191.339 127.75 191.584 127.75C191.829 127.75 192.038 127.833 192.212 128C192.39 128.167 192.479 128.368 192.479 128.602C192.479 128.837 192.39 129.037 192.212 129.204C192.038 129.371 191.829 129.455 191.584 129.455ZM197.956 139.17C197.168 139.17 196.488 138.996 195.916 138.648C195.348 138.297 194.909 137.807 194.6 137.178C194.295 136.546 194.142 135.811 194.142 134.973C194.142 134.135 194.295 133.396 194.6 132.757C194.909 132.114 195.339 131.614 195.889 131.255C196.443 130.893 197.089 130.712 197.828 130.712C198.254 130.712 198.675 130.783 199.091 130.925C199.506 131.067 199.884 131.298 200.225 131.617C200.566 131.933 200.838 132.352 201.04 132.874C201.243 133.396 201.344 134.039 201.344 134.803V135.335H195.037V134.249H200.065C200.065 133.787 199.973 133.375 199.788 133.013C199.607 132.651 199.348 132.365 199.011 132.155C198.677 131.946 198.283 131.841 197.828 131.841C197.327 131.841 196.894 131.965 196.528 132.214C196.166 132.459 195.887 132.778 195.692 133.173C195.497 133.567 195.399 133.989 195.399 134.44V135.165C195.399 135.783 195.506 136.306 195.719 136.736C195.935 137.162 196.235 137.487 196.619 137.711C197.002 137.931 197.448 138.041 197.956 138.041C198.286 138.041 198.585 137.995 198.851 137.903C199.121 137.807 199.353 137.665 199.549 137.477C199.744 137.285 199.895 137.047 200.001 136.763L201.216 137.104C201.088 137.516 200.873 137.878 200.571 138.19C200.27 138.499 199.897 138.741 199.453 138.915C199.009 139.085 198.51 139.17 197.956 139.17ZM206.58 139.17C205.813 139.17 205.152 138.989 204.598 138.627C204.044 138.265 203.618 137.766 203.32 137.13C203.022 136.495 202.873 135.768 202.873 134.952C202.873 134.121 203.025 133.387 203.331 132.752C203.64 132.113 204.069 131.614 204.62 131.255C205.174 130.893 205.82 130.712 206.559 130.712C207.134 130.712 207.652 130.818 208.114 131.031C208.576 131.244 208.954 131.543 209.249 131.926C209.543 132.31 209.726 132.757 209.797 133.268H208.54C208.444 132.896 208.231 132.565 207.901 132.278C207.574 131.987 207.134 131.841 206.58 131.841C206.09 131.841 205.66 131.969 205.291 132.224C204.925 132.477 204.639 132.833 204.433 133.295C204.231 133.753 204.13 134.291 204.13 134.909C204.13 135.541 204.229 136.092 204.428 136.56C204.63 137.029 204.914 137.393 205.28 137.652C205.65 137.912 206.083 138.041 206.58 138.041C206.907 138.041 207.203 137.984 207.469 137.871C207.736 137.757 207.961 137.594 208.146 137.381C208.331 137.168 208.462 136.912 208.54 136.614H209.797C209.726 137.097 209.55 137.532 209.27 137.919C208.993 138.302 208.625 138.608 208.167 138.835C207.713 139.059 207.184 139.17 206.58 139.17ZM215.193 130.818V131.884H210.953V130.818H215.193ZM212.189 128.858H213.446V136.656C213.446 137.011 213.498 137.278 213.6 137.455C213.707 137.629 213.842 137.746 214.005 137.807C214.172 137.864 214.348 137.892 214.533 137.892C214.671 137.892 214.785 137.885 214.874 137.871C214.962 137.853 215.033 137.839 215.087 137.828L215.342 138.957C215.257 138.989 215.138 139.021 214.985 139.053C214.833 139.089 214.639 139.107 214.405 139.107C214.05 139.107 213.702 139.03 213.361 138.877C213.023 138.725 212.743 138.492 212.519 138.18C212.299 137.867 212.189 137.473 212.189 136.997V128.858ZM222.733 132.651L221.604 132.97C221.533 132.782 221.428 132.599 221.29 132.422C221.155 132.24 220.97 132.091 220.736 131.974C220.501 131.857 220.201 131.798 219.835 131.798C219.335 131.798 218.917 131.914 218.584 132.145C218.253 132.372 218.088 132.661 218.088 133.013C218.088 133.325 218.202 133.572 218.429 133.753C218.656 133.934 219.012 134.085 219.494 134.206L220.709 134.504C221.441 134.682 221.986 134.953 222.344 135.319C222.703 135.681 222.882 136.148 222.882 136.72C222.882 137.189 222.747 137.608 222.477 137.977C222.211 138.347 221.838 138.638 221.359 138.851C220.879 139.064 220.322 139.17 219.686 139.17C218.852 139.17 218.161 138.989 217.614 138.627C217.067 138.265 216.721 137.736 216.575 137.04L217.769 136.741C217.882 137.182 218.097 137.512 218.413 137.732C218.733 137.952 219.15 138.062 219.665 138.062C220.251 138.062 220.716 137.938 221.061 137.69C221.409 137.437 221.583 137.136 221.583 136.784C221.583 136.5 221.483 136.262 221.284 136.07C221.085 135.875 220.78 135.729 220.368 135.634L219.004 135.314C218.255 135.136 217.705 134.861 217.353 134.488C217.005 134.112 216.831 133.641 216.831 133.077C216.831 132.615 216.961 132.207 217.22 131.852C217.483 131.496 217.84 131.218 218.291 131.015C218.745 130.813 219.26 130.712 219.835 130.712C220.645 130.712 221.281 130.889 221.742 131.244C222.208 131.599 222.538 132.068 222.733 132.651ZM226.65 137.509L226.564 138.084C226.504 138.489 226.412 138.922 226.287 139.384C226.167 139.845 226.041 140.28 225.909 140.689C225.778 141.097 225.669 141.422 225.584 141.663H224.625C224.672 141.436 224.732 141.136 224.807 140.763C224.881 140.39 224.956 139.973 225.03 139.511C225.108 139.053 225.172 138.585 225.222 138.105L225.286 137.509H226.65ZM233.197 139V130.818H234.455V139H233.197ZM233.837 129.455C233.592 129.455 233.38 129.371 233.203 129.204C233.029 129.037 232.942 128.837 232.942 128.602C232.942 128.368 233.029 128.167 233.203 128C233.38 127.833 233.592 127.75 233.837 127.75C234.082 127.75 234.291 127.833 234.465 128C234.643 128.167 234.732 128.368 234.732 128.602C234.732 128.837 234.643 129.037 234.465 129.204C234.291 129.371 234.082 129.455 233.837 129.455ZM239.847 139.17C239.165 139.17 238.563 138.998 238.041 138.654C237.519 138.306 237.11 137.816 236.816 137.184C236.521 136.548 236.373 135.797 236.373 134.93C236.373 134.071 236.521 133.325 236.816 132.693C237.11 132.061 237.521 131.573 238.046 131.228C238.572 130.884 239.179 130.712 239.868 130.712C240.4 130.712 240.821 130.8 241.13 130.978C241.443 131.152 241.681 131.351 241.844 131.575C242.011 131.795 242.141 131.976 242.233 132.118H242.339V128.091H243.597V139H242.382V137.743H242.233C242.141 137.892 242.009 138.08 241.839 138.308C241.668 138.531 241.425 138.732 241.109 138.909C240.793 139.083 240.372 139.17 239.847 139.17ZM240.017 138.041C240.521 138.041 240.947 137.91 241.295 137.647C241.643 137.381 241.908 137.013 242.089 136.544C242.27 136.072 242.361 135.527 242.361 134.909C242.361 134.298 242.272 133.764 242.094 133.306C241.917 132.844 241.654 132.485 241.306 132.23C240.958 131.971 240.528 131.841 240.017 131.841C239.484 131.841 239.04 131.978 238.685 132.251C238.334 132.521 238.069 132.888 237.892 133.354C237.718 133.815 237.631 134.334 237.631 134.909C237.631 135.491 237.719 136.021 237.897 136.496C238.078 136.969 238.344 137.345 238.696 137.626C239.051 137.903 239.491 138.041 240.017 138.041ZM249.504 139.17C248.715 139.17 248.035 138.996 247.464 138.648C246.896 138.297 246.457 137.807 246.148 137.178C245.843 136.546 245.69 135.811 245.69 134.973C245.69 134.135 245.843 133.396 246.148 132.757C246.457 132.114 246.887 131.614 247.437 131.255C247.991 130.893 248.637 130.712 249.376 130.712C249.802 130.712 250.223 130.783 250.638 130.925C251.054 131.067 251.432 131.298 251.773 131.617C252.114 131.933 252.386 132.352 252.588 132.874C252.79 133.396 252.892 134.039 252.892 134.803V135.335H246.585V134.249H251.613C251.613 133.787 251.521 133.375 251.336 133.013C251.155 132.651 250.896 132.365 250.559 132.155C250.225 131.946 249.831 131.841 249.376 131.841C248.875 131.841 248.442 131.965 248.076 132.214C247.714 132.459 247.435 132.778 247.24 133.173C247.045 133.567 246.947 133.989 246.947 134.44V135.165C246.947 135.783 247.054 136.306 247.267 136.736C247.483 137.162 247.783 137.487 248.167 137.711C248.55 137.931 248.996 138.041 249.504 138.041C249.834 138.041 250.132 137.995 250.399 137.903C250.669 137.807 250.901 137.665 251.097 137.477C251.292 137.285 251.443 137.047 251.549 136.763L252.764 137.104C252.636 137.516 252.421 137.878 252.119 138.19C251.817 138.499 251.445 138.741 251.001 138.915C250.557 139.085 250.058 139.17 249.504 139.17ZM257.212 139.192C256.693 139.192 256.223 139.094 255.8 138.899C255.377 138.7 255.042 138.414 254.793 138.041C254.545 137.665 254.42 137.21 254.42 136.678C254.42 136.209 254.513 135.829 254.697 135.538C254.882 135.243 255.129 135.012 255.438 134.845C255.747 134.678 256.088 134.554 256.46 134.472C256.837 134.387 257.215 134.32 257.595 134.27C258.092 134.206 258.495 134.158 258.804 134.126C259.117 134.091 259.344 134.032 259.486 133.95C259.632 133.869 259.704 133.727 259.704 133.524V133.482C259.704 132.956 259.561 132.548 259.273 132.256C258.989 131.965 258.557 131.82 257.979 131.82C257.378 131.82 256.908 131.951 256.567 132.214C256.226 132.477 255.986 132.757 255.848 133.055L254.655 132.629C254.868 132.132 255.152 131.745 255.507 131.468C255.866 131.187 256.256 130.992 256.679 130.882C257.105 130.768 257.524 130.712 257.936 130.712C258.199 130.712 258.501 130.744 258.842 130.808C259.186 130.868 259.518 130.994 259.838 131.186C260.161 131.377 260.429 131.667 260.642 132.054C260.855 132.441 260.962 132.96 260.962 133.609V139H259.704V137.892H259.641C259.555 138.07 259.413 138.26 259.214 138.462C259.016 138.664 258.751 138.837 258.421 138.979C258.09 139.121 257.687 139.192 257.212 139.192ZM257.403 138.062C257.9 138.062 258.32 137.965 258.66 137.77C259.005 137.574 259.264 137.322 259.438 137.013C259.616 136.704 259.704 136.379 259.704 136.038V134.888C259.651 134.952 259.534 135.01 259.353 135.064C259.175 135.113 258.969 135.158 258.735 135.197C258.504 135.232 258.279 135.264 258.059 135.293C257.842 135.317 257.666 135.339 257.531 135.357C257.204 135.399 256.899 135.468 256.615 135.564C256.334 135.657 256.107 135.797 255.933 135.985C255.763 136.17 255.677 136.422 255.677 136.741C255.677 137.178 255.839 137.509 256.162 137.732C256.489 137.952 256.903 138.062 257.403 138.062ZM269.051 132.651L267.922 132.97C267.851 132.782 267.746 132.599 267.608 132.422C267.473 132.24 267.288 132.091 267.054 131.974C266.82 131.857 266.52 131.798 266.154 131.798C265.653 131.798 265.236 131.914 264.902 132.145C264.572 132.372 264.407 132.661 264.407 133.013C264.407 133.325 264.52 133.572 264.748 133.753C264.975 133.934 265.33 134.085 265.813 134.206L267.027 134.504C267.759 134.682 268.304 134.953 268.663 135.319C269.021 135.681 269.201 136.148 269.201 136.72C269.201 137.189 269.066 137.608 268.796 137.977C268.529 138.347 268.157 138.638 267.677 138.851C267.198 139.064 266.64 139.17 266.005 139.17C265.17 139.17 264.479 138.989 263.933 138.627C263.386 138.265 263.039 137.736 262.894 137.04L264.087 136.741C264.201 137.182 264.415 137.512 264.732 137.732C265.051 137.952 265.468 138.062 265.983 138.062C266.569 138.062 267.034 137.938 267.379 137.69C267.727 137.437 267.901 137.136 267.901 136.784C267.901 136.5 267.801 136.262 267.603 136.07C267.404 135.875 267.098 135.729 266.686 135.634L265.323 135.314C264.574 135.136 264.023 134.861 263.672 134.488C263.324 134.112 263.15 133.641 263.15 133.077C263.15 132.615 263.279 132.207 263.538 131.852C263.801 131.496 264.158 131.218 264.609 131.015C265.064 130.813 265.578 130.712 266.154 130.712C266.963 130.712 267.599 130.889 268.061 131.244C268.526 131.599 268.856 132.068 269.051 132.651ZM272.968 137.509L272.883 138.084C272.822 138.489 272.73 138.922 272.606 139.384C272.485 139.845 272.359 140.28 272.228 140.689C272.096 141.097 271.988 141.422 271.903 141.663H270.944C270.99 141.436 271.05 141.136 271.125 140.763C271.199 140.39 271.274 139.973 271.349 139.511C271.427 139.053 271.491 138.585 271.54 138.105L271.604 137.509H272.968ZM281.923 139.192C281.405 139.192 280.934 139.094 280.512 138.899C280.089 138.7 279.754 138.414 279.505 138.041C279.257 137.665 279.132 137.21 279.132 136.678C279.132 136.209 279.225 135.829 279.409 135.538C279.594 135.243 279.841 135.012 280.15 134.845C280.459 134.678 280.8 134.554 281.172 134.472C281.549 134.387 281.927 134.32 282.307 134.27C282.804 134.206 283.207 134.158 283.516 134.126C283.829 134.091 284.056 134.032 284.198 133.95C284.344 133.869 284.416 133.727 284.416 133.524V133.482C284.416 132.956 284.273 132.548 283.985 132.256C283.701 131.965 283.269 131.82 282.691 131.82C282.09 131.82 281.62 131.951 281.279 132.214C280.938 132.477 280.698 132.757 280.56 133.055L279.367 132.629C279.58 132.132 279.864 131.745 280.219 131.468C280.578 131.187 280.968 130.992 281.391 130.882C281.817 130.768 282.236 130.712 282.648 130.712C282.911 130.712 283.213 130.744 283.553 130.808C283.898 130.868 284.23 130.994 284.55 131.186C284.873 131.377 285.141 131.667 285.354 132.054C285.567 132.441 285.673 132.96 285.673 133.609V139H284.416V137.892H284.352C284.267 138.07 284.125 138.26 283.926 138.462C283.727 138.664 283.463 138.837 283.133 138.979C282.802 139.121 282.399 139.192 281.923 139.192ZM282.115 138.062C282.612 138.062 283.031 137.965 283.372 137.77C283.717 137.574 283.976 137.322 284.15 137.013C284.328 136.704 284.416 136.379 284.416 136.038V134.888C284.363 134.952 284.246 135.01 284.065 135.064C283.887 135.113 283.681 135.158 283.447 135.197C283.216 135.232 282.991 135.264 282.77 135.293C282.554 135.317 282.378 135.339 282.243 135.357C281.916 135.399 281.611 135.468 281.327 135.564C281.046 135.657 280.819 135.797 280.645 135.985C280.475 136.17 280.389 136.422 280.389 136.741C280.389 137.178 280.551 137.509 280.874 137.732C281.201 137.952 281.615 138.062 282.115 138.062ZM289.225 134.078V139H287.968V130.818H289.182V132.097H289.289C289.481 131.681 289.772 131.347 290.163 131.095C290.553 130.839 291.057 130.712 291.675 130.712C292.229 130.712 292.714 130.825 293.13 131.053C293.545 131.276 293.868 131.617 294.099 132.075C294.33 132.53 294.445 133.105 294.445 133.801V139H293.188V133.886C293.188 133.244 293.021 132.743 292.687 132.384C292.354 132.022 291.896 131.841 291.313 131.841C290.912 131.841 290.553 131.928 290.237 132.102C289.925 132.276 289.678 132.53 289.497 132.864C289.316 133.197 289.225 133.602 289.225 134.078ZM299.832 139.17C299.15 139.17 298.548 138.998 298.026 138.654C297.504 138.306 297.096 137.816 296.801 137.184C296.506 136.548 296.359 135.797 296.359 134.93C296.359 134.071 296.506 133.325 296.801 132.693C297.096 132.061 297.506 131.573 298.031 131.228C298.557 130.884 299.164 130.712 299.853 130.712C300.386 130.712 300.807 130.8 301.116 130.978C301.428 131.152 301.666 131.351 301.829 131.575C301.996 131.795 302.126 131.976 302.218 132.118H302.325V128.091H303.582V139H302.367V137.743H302.218C302.126 137.892 301.994 138.08 301.824 138.308C301.654 138.531 301.41 138.732 301.094 138.909C300.778 139.083 300.357 139.17 299.832 139.17ZM300.002 138.041C300.507 138.041 300.933 137.91 301.281 137.647C301.629 137.381 301.893 137.013 302.074 136.544C302.256 136.072 302.346 135.527 302.346 134.909C302.346 134.298 302.257 133.764 302.08 133.306C301.902 132.844 301.639 132.485 301.291 132.23C300.943 131.971 300.514 131.841 300.002 131.841C299.47 131.841 299.026 131.978 298.671 132.251C298.319 132.521 298.055 132.888 297.877 133.354C297.703 133.815 297.616 134.334 297.616 134.909C297.616 135.491 297.705 136.021 297.882 136.496C298.063 136.969 298.33 137.345 298.681 137.626C299.036 137.903 299.477 138.041 300.002 138.041ZM316.073 132.651L314.944 132.97C314.873 132.782 314.768 132.599 314.629 132.422C314.494 132.24 314.31 132.091 314.075 131.974C313.841 131.857 313.541 131.798 313.175 131.798C312.675 131.798 312.257 131.914 311.923 132.145C311.593 132.372 311.428 132.661 311.428 133.013C311.428 133.325 311.542 133.572 311.769 133.753C311.996 133.934 312.351 134.085 312.834 134.206L314.049 134.504C314.78 134.682 315.325 134.953 315.684 135.319C316.043 135.681 316.222 136.148 316.222 136.72C316.222 137.189 316.087 137.608 315.817 137.977C315.551 138.347 315.178 138.638 314.699 138.851C314.219 139.064 313.662 139.17 313.026 139.17C312.192 139.17 311.501 138.989 310.954 138.627C310.407 138.265 310.061 137.736 309.915 137.04L311.108 136.741C311.222 137.182 311.437 137.512 311.753 137.732C312.073 137.952 312.49 138.062 313.005 138.062C313.591 138.062 314.056 137.938 314.4 137.69C314.748 137.437 314.922 137.136 314.922 136.784C314.922 136.5 314.823 136.262 314.624 136.07C314.425 135.875 314.12 135.729 313.708 135.634L312.344 135.314C311.595 135.136 311.045 134.861 310.693 134.488C310.345 134.112 310.171 133.641 310.171 133.077C310.171 132.615 310.301 132.207 310.56 131.852C310.823 131.496 311.18 131.218 311.631 131.015C312.085 130.813 312.6 130.712 313.175 130.712C313.985 130.712 314.621 130.889 315.082 131.244C315.547 131.599 315.878 132.068 316.073 132.651ZM321.438 139.17C320.671 139.17 320.011 138.989 319.457 138.627C318.903 138.265 318.477 137.766 318.178 137.13C317.88 136.495 317.731 135.768 317.731 134.952C317.731 134.121 317.884 133.387 318.189 132.752C318.498 132.113 318.928 131.614 319.478 131.255C320.032 130.893 320.678 130.712 321.417 130.712C321.992 130.712 322.511 130.818 322.972 131.031C323.434 131.244 323.812 131.543 324.107 131.926C324.402 132.31 324.585 132.757 324.656 133.268H323.399C323.303 132.896 323.09 132.565 322.759 132.278C322.433 131.987 321.992 131.841 321.438 131.841C320.948 131.841 320.519 131.969 320.149 132.224C319.783 132.477 319.498 132.833 319.292 133.295C319.089 133.753 318.988 134.291 318.988 134.909C318.988 135.541 319.087 136.092 319.286 136.56C319.489 137.029 319.773 137.393 320.139 137.652C320.508 137.912 320.941 138.041 321.438 138.041C321.765 138.041 322.062 137.984 322.328 137.871C322.594 137.757 322.82 137.594 323.004 137.381C323.189 137.168 323.32 136.912 323.399 136.614H324.656C324.585 137.097 324.409 137.532 324.128 137.919C323.851 138.302 323.484 138.608 323.026 138.835C322.571 139.059 322.042 139.17 321.438 139.17ZM326.493 139V130.818H327.708V132.054H327.793C327.942 131.649 328.212 131.321 328.603 131.069C328.993 130.816 329.434 130.69 329.924 130.69C330.016 130.69 330.131 130.692 330.27 130.696C330.408 130.699 330.513 130.705 330.584 130.712V131.99C330.542 131.979 330.444 131.963 330.291 131.942C330.142 131.917 329.984 131.905 329.817 131.905C329.419 131.905 329.064 131.988 328.752 132.155C328.443 132.319 328.198 132.546 328.017 132.837C327.839 133.125 327.75 133.453 327.75 133.822V139H326.493ZM332.074 139V130.818H333.331V139H332.074ZM332.714 129.455C332.469 129.455 332.257 129.371 332.08 129.204C331.906 129.037 331.819 128.837 331.819 128.602C331.819 128.368 331.906 128.167 332.08 128C332.257 127.833 332.469 127.75 332.714 127.75C332.959 127.75 333.168 127.833 333.342 128C333.52 128.167 333.608 128.368 333.608 128.602C333.608 128.837 333.52 129.037 333.342 129.204C333.168 129.371 332.959 129.455 332.714 129.455ZM335.634 142.068V130.818H336.848V132.118H336.998C337.09 131.976 337.218 131.795 337.381 131.575C337.548 131.351 337.786 131.152 338.095 130.978C338.407 130.8 338.83 130.712 339.363 130.712C340.052 130.712 340.659 130.884 341.184 131.228C341.71 131.573 342.12 132.061 342.415 132.693C342.71 133.325 342.857 134.071 342.857 134.93C342.857 135.797 342.71 136.548 342.415 137.184C342.12 137.816 341.712 138.306 341.19 138.654C340.668 138.998 340.066 139.17 339.384 139.17C338.858 139.17 338.438 139.083 338.122 138.909C337.805 138.732 337.562 138.531 337.392 138.308C337.221 138.08 337.09 137.892 336.998 137.743H336.891V142.068H335.634ZM336.87 134.909C336.87 135.527 336.96 136.072 337.141 136.544C337.323 137.013 337.587 137.381 337.935 137.647C338.283 137.91 338.709 138.041 339.214 138.041C339.739 138.041 340.178 137.903 340.529 137.626C340.884 137.345 341.151 136.969 341.328 136.496C341.509 136.021 341.6 135.491 341.6 134.909C341.6 134.334 341.511 133.815 341.334 133.354C341.16 132.888 340.895 132.521 340.54 132.251C340.188 131.978 339.746 131.841 339.214 131.841C338.702 131.841 338.272 131.971 337.924 132.23C337.576 132.485 337.314 132.844 337.136 133.306C336.959 133.764 336.87 134.298 336.87 134.909ZM348.333 130.818V131.884H344.093V130.818H348.333ZM345.329 128.858H346.586V136.656C346.586 137.011 346.637 137.278 346.74 137.455C346.847 137.629 346.982 137.746 347.145 137.807C347.312 137.864 347.488 137.892 347.672 137.892C347.811 137.892 347.924 137.885 348.013 137.871C348.102 137.853 348.173 137.839 348.226 137.828L348.482 138.957C348.397 138.989 348.278 139.021 348.125 139.053C347.972 139.089 347.779 139.107 347.544 139.107C347.189 139.107 346.841 139.03 346.5 138.877C346.163 138.725 345.883 138.492 345.659 138.18C345.439 137.867 345.329 137.473 345.329 136.997V128.858ZM355.873 132.651L354.744 132.97C354.672 132.782 354.568 132.599 354.429 132.422C354.294 132.24 354.11 132.091 353.875 131.974C353.641 131.857 353.341 131.798 352.975 131.798C352.474 131.798 352.057 131.914 351.723 132.145C351.393 132.372 351.228 132.661 351.228 133.013C351.228 133.325 351.342 133.572 351.569 133.753C351.796 133.934 352.151 134.085 352.634 134.206L353.849 134.504C354.58 134.682 355.125 134.953 355.484 135.319C355.843 135.681 356.022 136.148 356.022 136.72C356.022 137.189 355.887 137.608 355.617 137.977C355.351 138.347 354.978 138.638 354.498 138.851C354.019 139.064 353.462 139.17 352.826 139.17C351.991 139.17 351.301 138.989 350.754 138.627C350.207 138.265 349.861 137.736 349.715 137.04L350.908 136.741C351.022 137.182 351.237 137.512 351.553 137.732C351.872 137.952 352.29 138.062 352.805 138.062C353.391 138.062 353.856 137.938 354.2 137.69C354.548 137.437 354.722 137.136 354.722 136.784C354.722 136.5 354.623 136.262 354.424 136.07C354.225 135.875 353.92 135.729 353.508 135.634L352.144 135.314C351.395 135.136 350.844 134.861 350.493 134.488C350.145 134.112 349.971 133.641 349.971 133.077C349.971 132.615 350.1 132.207 350.36 131.852C350.622 131.496 350.979 131.218 351.43 131.015C351.885 130.813 352.4 130.712 352.975 130.712C353.785 130.712 354.42 130.889 354.882 131.244C355.347 131.599 355.677 132.068 355.873 132.651Z" fill="#003301"/>
<rect x="157" y="169" width="401" height="252" rx="15" fill="#86FA7C"/>
<path d="M208.5 232C208.5 227.858 211.858 224.5 216 224.5H337C341.142 224.5 344.5 227.858 344.5 232V347C344.5 351.142 341.142 354.5 337 354.5H216C211.858 354.5 208.5 351.142 208.5 347V232Z" fill="#CFFFC5" stroke="#068902" stroke-width="5"/>
<path d="M501.347 103.486C499.39 131.031 492.759 77.8133 465.214 75.8563C437.669 73.8993 416.926 49.9834 418.883 22.4386C420.84 -5.10625 440.22 37.9898 467.765 39.9468C495.31 41.9038 503.304 75.9416 501.347 103.486Z" fill="#06B500"/>
<mask id="path-9-inside-1_10_5" fill="white">
<path d="M438.08 92.4961C438.08 84.2118 444.796 77.4961 453.08 77.4961H523.08C531.364 77.4961 538.08 84.2118 538.08 92.4961V162.496C538.08 170.78 531.364 177.496 523.08 177.496H453.08C444.796 177.496 438.08 170.78 438.08 162.496V92.4961Z"/>
</mask>
<path d="M438.08 92.4961C438.08 84.2118 444.796 77.4961 453.08 77.4961H523.08C531.364 77.4961 538.08 84.2118 538.08 92.4961V162.496C538.08 170.78 531.364 177.496 523.08 177.496H453.08C444.796 177.496 438.08 170.78 438.08 162.496V92.4961Z" fill="#3FFC2E"/>
<path d="M438.08 92.4961C438.08 77.5844 450.168 65.4961 465.08 65.4961H511.08C525.992 65.4961 538.08 77.5844 538.08 92.4961C538.08 90.8392 531.364 89.4961 523.08 89.4961H453.08C444.796 89.4961 438.08 90.8392 438.08 92.4961ZM538.08 177.496H438.08H538.08ZM438.08 177.496V77.4961V177.496ZM538.08 77.4961V177.496V77.4961Z" fill="#0FE200" mask="url(#path-9-inside-1_10_5)"/>
<circle cx="488.08" cy="127.496" r="25" fill="white"/>
<circle cx="488.08" cy="127.496" r="20" fill="#003301"/>
<path d="M414.393 132.854C413.878 125.383 422.183 120.588 428.396 124.77L444.986 135.933C451.077 140.032 449.962 149.307 443.073 151.845C440.361 152.844 437.335 152.48 434.937 150.867L418.347 139.703C416.043 138.153 414.583 135.625 414.393 132.854Z" fill="#0C5B0C"/>
<path d="M534.187 151.676C526.831 150.273 524.305 141.023 529.929 136.077L544.944 122.871C550.457 118.022 559.144 121.459 559.847 128.767C560.123 131.644 559.002 134.478 556.832 136.387L541.817 149.593C539.731 151.427 536.916 152.196 534.187 151.676Z" fill="#0C5B0C"/>
<path d="M366 231C366 225.477 370.477 221 376 221H497C502.523 221 507 225.477 507 231V346C507 351.523 502.523 356 497 356H376C370.477 356 366 351.523 366 346V231Z" fill="#CFFFC5"/>
<path d="M439.434 301.118C438.846 300.82 438.154 300.82 437.566 301.118L430.029 304.938C428.433 305.747 426.635 304.285 427.068 302.53L428.831 295.385C428.999 294.702 428.821 293.978 428.357 293.455L422.539 286.903C421.38 285.597 422.203 283.51 423.932 283.375L432.047 282.742C432.806 282.683 433.474 282.21 433.789 281.507L436.598 275.241C437.34 273.586 439.66 273.586 440.402 275.241L443.211 281.507C443.526 282.21 444.194 282.683 444.953 282.742L453.068 283.375C454.796 283.51 455.62 285.597 454.461 286.903L448.643 293.455C448.179 293.978 448.001 294.702 448.169 295.385L449.932 302.53C450.365 304.285 448.567 305.747 446.971 304.938L439.434 301.118Z" stroke="#2B5312" stroke-width="1.5" stroke-linecap="round" stroke-linejoin="round"/>
<path d="M278.852 327.031H314.269" stroke="#33470D" stroke-width="1.5" stroke-linecap="round" stroke-linejoin="round"/>
<path d="M245.518 327.031C247.803 329.317 252.596 329.095 256.457 328.429C260.282 327.769 263.613 325.602 266.358 322.858L303.851 285.364C303.851 285.364 316.351 272.864 308.018 264.531C299.685 256.198 287.185 268.698 287.185 268.698L249.691 306.191C246.947 308.936 244.78 312.267 244.12 316.092C243.454 319.953 243.233 324.746 245.518 327.031Z" stroke="#33470D" stroke-width="1.5" stroke-linecap="round" stroke-linejoin="round"/>
<path d="M287.185 268.698L303.851 285.364" stroke="#33470D" stroke-width="1.5" stroke-linecap="round" stroke-linejoin="round"/>
</svg>
