<svg width="304" height="388" viewBox="0 0 304 388" fill="none" xmlns="http://www.w3.org/2000/svg">
<rect x="26" width="278" height="388" rx="35" fill="#ECFFB2"/>
<path d="M157.986 211.486C159.943 239.031 166.574 185.813 194.118 183.856C221.663 181.899 242.406 157.983 240.449 130.439C238.492 102.894 219.112 145.99 191.567 147.947C164.022 149.904 156.029 183.942 157.986 211.486Z" fill="#06B500"/>
<path d="M95.7494 252.361C96.2447 244.889 105.118 241.255 110.713 246.233L125.651 259.527C131.135 264.408 128.783 273.448 121.615 275.037C118.793 275.662 115.843 274.895 113.684 272.973L98.7466 259.68C96.6718 257.834 95.5658 255.133 95.7494 252.361Z" fill="#0C5B0C"/>
<mask id="path-4-inside-1_11_285" fill="white">
<path d="M122.08 209.496C122.08 201.212 128.796 194.496 137.08 194.496H207.08C215.364 194.496 222.08 201.212 222.08 209.496V279.496C222.08 287.78 215.364 294.496 207.08 294.496H137.08C128.796 294.496 122.08 287.78 122.08 279.496V209.496Z"/>
</mask>
<path d="M122.08 209.496C122.08 201.212 128.796 194.496 137.08 194.496H207.08C215.364 194.496 222.08 201.212 222.08 209.496V279.496C222.08 287.78 215.364 294.496 207.08 294.496H137.08C128.796 294.496 122.08 287.78 122.08 279.496V209.496Z" fill="#3FFC2E"/>
<path d="M122.08 209.496C122.08 194.584 134.168 182.496 149.08 182.496H195.08C209.992 182.496 222.08 194.584 222.08 209.496C222.08 207.839 215.364 206.496 207.08 206.496H137.08C128.796 206.496 122.08 207.839 122.08 209.496ZM222.08 294.496H122.08H222.08ZM122.08 294.496V194.496V294.496ZM222.08 194.496V294.496V194.496Z" fill="#0FE200" mask="url(#path-4-inside-1_11_285)"/>
<circle cx="157" cy="239" r="25" fill="white"/>
<circle cx="152" cy="239" r="20" fill="#003301"/>
<path d="M159.591 282.151C158.357 274.763 166.16 269.19 172.748 272.751L190.338 282.261C196.797 285.753 196.582 295.092 189.97 298.284C187.368 299.54 184.32 299.47 181.778 298.095L164.188 288.586C161.744 287.265 160.048 284.89 159.591 282.151Z" fill="#0C5B0C"/>
<rect x="2" y="266" width="185" height="59" rx="5" fill="#FFE9E9" stroke="#06B500" stroke-width="4"/>
<path d="M72.1473 290.2C72.2913 290.408 72.3393 290.736 72.2913 291.184C72.2593 291.616 72.1793 292.088 72.0513 292.6C71.9233 293.096 71.7713 293.592 71.5953 294.088C71.4193 294.568 71.2753 294.968 71.1633 295.288C70.8913 296.024 70.6513 296.712 70.4433 297.352C70.2353 297.992 69.9873 298.696 69.6993 299.464C69.6033 299.688 69.5073 299.912 69.4113 300.136C69.3313 300.36 69.2273 300.56 69.0993 300.736C68.9873 300.912 68.8433 301.056 68.6673 301.168C68.5073 301.28 68.3073 301.336 68.0673 301.336C67.7953 301.336 67.5553 301.24 67.3473 301.048C67.1553 300.856 66.9873 300.616 66.8433 300.328C66.7153 300.04 66.6033 299.736 66.5073 299.416C66.4113 299.096 66.3313 298.816 66.2673 298.576C66.0593 297.872 65.8753 297.232 65.7153 296.656C65.5553 296.064 65.4113 295.536 65.2833 295.072C65.1393 295.536 64.9953 296.04 64.8513 296.584C64.7073 297.128 64.5233 297.744 64.2993 298.432C64.2353 298.672 64.1553 298.968 64.0593 299.32C63.9633 299.656 63.8433 299.976 63.6993 300.28C63.5713 300.584 63.4033 300.84 63.1953 301.048C63.0033 301.272 62.7713 301.368 62.4993 301.336C62.1153 301.32 61.7793 301.168 61.4913 300.88C61.2193 300.576 60.9793 300.216 60.7713 299.8C60.5793 299.384 60.4113 298.952 60.2673 298.504C60.1233 298.056 60.0033 297.664 59.9073 297.328C59.7793 296.896 59.6273 296.416 59.4513 295.888C59.2753 295.36 59.0993 294.824 58.9233 294.28C58.7633 293.72 58.6113 293.168 58.4673 292.624C58.3233 292.064 58.2273 291.552 58.1793 291.088C58.1473 290.784 58.2033 290.504 58.3473 290.248C58.5073 289.992 58.7073 289.816 58.9473 289.72C59.2033 289.608 59.4753 289.584 59.7633 289.648C60.0673 289.712 60.3393 289.904 60.5793 290.224C60.7073 290.384 60.8193 290.584 60.9153 290.824C61.0273 291.064 61.1233 291.328 61.2033 291.616C61.2833 291.888 61.3633 292.168 61.4433 292.456C61.5233 292.744 61.6033 293.024 61.6833 293.296C61.8593 293.904 62.0033 294.384 62.1153 294.736C62.2433 295.072 62.3713 295.424 62.4993 295.792C62.6113 295.424 62.7233 295.072 62.8353 294.736C62.9633 294.384 63.1153 293.904 63.2913 293.296C63.3553 293.104 63.4273 292.888 63.5073 292.648C63.6033 292.392 63.6993 292.152 63.7953 291.928C63.9073 291.704 64.0273 291.496 64.1553 291.304C64.2993 291.096 64.4513 290.944 64.6113 290.848C64.9633 290.608 65.2833 290.552 65.5713 290.68C65.8593 290.792 66.1073 290.992 66.3153 291.28C66.5233 291.568 66.6993 291.904 66.8433 292.288C67.0033 292.656 67.1313 292.992 67.2273 293.296C67.3233 293.616 67.4113 293.896 67.4913 294.136C67.5713 294.36 67.6433 294.568 67.7073 294.76C67.7713 294.952 67.8273 295.136 67.8753 295.312C67.9393 295.488 68.0033 295.672 68.0673 295.864C68.1313 295.672 68.1873 295.488 68.2353 295.312C68.2993 295.136 68.3633 294.952 68.4273 294.76C68.4913 294.568 68.5633 294.36 68.6433 294.136C68.7233 293.896 68.8113 293.616 68.9073 293.296C68.9713 293.088 69.0353 292.848 69.0993 292.576C69.1793 292.304 69.2593 292.032 69.3393 291.76C69.4193 291.472 69.4993 291.2 69.5793 290.944C69.6753 290.688 69.7793 290.472 69.8913 290.296C70.0033 290.12 70.1553 289.976 70.3473 289.864C70.5393 289.736 70.7393 289.664 70.9473 289.648C71.1553 289.616 71.3633 289.64 71.5713 289.72C71.7953 289.8 71.9873 289.96 72.1473 290.2ZM83.6169 296.272C83.6329 296.592 83.6409 296.928 83.6409 297.28C83.6409 297.616 83.6329 297.928 83.6169 298.216C83.6009 298.648 83.5769 299.048 83.5449 299.416C83.5129 299.768 83.4489 300.072 83.3529 300.328C83.2569 300.568 83.1049 300.752 82.8969 300.88C82.7049 300.992 82.4329 301.024 82.0809 300.976C81.7129 300.928 81.4489 300.752 81.2889 300.448C81.1289 300.144 81.0169 299.8 80.9529 299.416C80.9049 299.016 80.8889 298.616 80.9049 298.216C80.9209 297.816 80.9209 297.504 80.9049 297.28C80.8889 296.928 80.8729 296.528 80.8569 296.08C80.8569 295.616 80.8089 295.184 80.7129 294.784C80.6329 294.368 80.4889 294.016 80.2809 293.728C80.0729 293.44 79.7609 293.288 79.3449 293.272C78.8169 293.24 78.4089 293.28 78.1209 293.392C77.8489 293.504 77.6489 293.672 77.5209 293.896C77.3929 294.104 77.3129 294.36 77.2809 294.664C77.2649 294.968 77.2329 295.296 77.1849 295.648L77.1609 296.584V298.336C77.1609 298.624 77.1529 298.928 77.1369 299.248C77.1369 299.552 77.0889 299.832 76.9929 300.088C76.8969 300.344 76.7449 300.56 76.5369 300.736C76.3449 300.912 76.0569 301 75.6729 301C75.1929 301 74.8329 300.848 74.5929 300.544C74.3689 300.224 74.2569 299.832 74.2569 299.368V285.568C74.2569 285.472 74.2569 285.384 74.2569 285.304C74.2729 285.208 74.2889 285.112 74.3049 285.016C74.3369 284.92 74.3609 284.832 74.3769 284.752C74.3929 284.656 74.4169 284.568 74.4489 284.488C74.4969 284.328 74.5769 284.208 74.6889 284.128C74.7689 284.048 74.8489 283.984 74.9289 283.936C75.0089 283.888 75.0969 283.856 75.1929 283.84C75.2729 283.824 75.3609 283.816 75.4569 283.816C75.5529 283.8 75.6489 283.792 75.7449 283.792C75.9849 283.792 76.2169 283.864 76.4409 284.008C76.5369 284.072 76.6249 284.144 76.7049 284.224C76.7849 284.288 76.8489 284.384 76.8969 284.512C77.0249 284.816 77.0889 285.104 77.0889 285.376C77.1049 285.456 77.1129 285.576 77.1129 285.736C77.1289 285.88 77.1369 286.032 77.1369 286.192C77.1369 286.352 77.1369 286.512 77.1369 286.672C77.1529 286.816 77.1609 286.928 77.1609 287.008V287.128C77.1769 287.64 77.1849 288.16 77.1849 288.688C77.1849 289.216 77.1849 289.752 77.1849 290.296V290.704C77.8569 290.48 78.5609 290.376 79.2969 290.392C80.0329 290.392 80.6889 290.536 81.2649 290.824C81.8569 291.128 82.3049 291.472 82.6089 291.856C82.9289 292.24 83.1609 292.664 83.3049 293.128C83.4489 293.592 83.5289 294.088 83.5449 294.616C83.5769 295.144 83.6009 295.696 83.6169 296.272ZM96.101 290.296C96.245 290.52 96.309 290.76 96.293 291.016C96.293 291.384 96.229 291.704 96.101 291.976C96.069 292.056 96.021 292.16 95.957 292.288C95.909 292.416 95.853 292.552 95.789 292.696C95.741 292.84 95.685 292.976 95.621 293.104C95.557 293.232 95.509 293.328 95.477 293.392L95.429 293.512C95.205 294.008 94.989 294.488 94.781 294.952C94.573 295.416 94.341 295.912 94.085 296.44C93.829 296.952 93.581 297.456 93.341 297.952C93.117 298.432 92.893 298.904 92.669 299.368C92.605 299.496 92.549 299.624 92.501 299.752C92.453 299.864 92.389 299.984 92.309 300.112L91.157 302.584C90.949 303 90.749 303.408 90.557 303.808C90.381 304.208 90.181 304.608 89.957 305.008C89.909 305.088 89.861 305.16 89.813 305.224C89.781 305.304 89.749 305.384 89.717 305.464C89.605 305.656 89.437 305.84 89.213 306.016C89.005 306.208 88.781 306.312 88.541 306.328C88.109 306.36 87.733 306.232 87.413 305.944C87.221 305.832 87.069 305.672 86.957 305.464C86.893 305.32 86.861 305.136 86.861 304.912C86.877 304.816 86.885 304.72 86.885 304.624C86.901 304.544 86.917 304.464 86.933 304.384C86.965 304.304 86.989 304.224 87.005 304.144C87.021 304.064 87.045 304 87.077 303.952C87.125 303.824 87.165 303.76 87.197 303.76L88.949 299.968C88.869 299.792 88.789 299.616 88.709 299.44C88.629 299.248 88.557 299.08 88.493 298.936C88.285 298.44 88.061 297.92 87.821 297.376C87.597 296.816 87.365 296.264 87.125 295.72C86.885 295.16 86.637 294.616 86.381 294.088C86.125 293.56 85.869 293.056 85.613 292.576C85.517 292.416 85.429 292.248 85.349 292.072C85.269 291.88 85.205 291.696 85.157 291.52C85.109 291.328 85.093 291.136 85.109 290.944C85.125 290.752 85.197 290.56 85.325 290.368C85.453 290.128 85.621 289.96 85.829 289.864C86.037 289.752 86.253 289.704 86.477 289.72C86.717 289.72 86.941 289.768 87.149 289.864C87.357 289.96 87.525 290.088 87.653 290.248C87.925 290.536 88.141 290.856 88.301 291.208C88.461 291.56 88.613 291.92 88.757 292.288C89.061 292.928 89.373 293.6 89.693 294.304C90.013 295.008 90.333 295.696 90.653 296.368L91.901 293.728C92.029 293.472 92.141 293.224 92.237 292.984C92.349 292.744 92.461 292.512 92.573 292.288C92.701 292.016 92.821 291.736 92.933 291.448C93.061 291.16 93.205 290.896 93.365 290.656C93.397 290.592 93.429 290.536 93.461 290.488C93.493 290.44 93.525 290.384 93.557 290.32C93.701 290.128 93.829 289.976 93.941 289.864C94.021 289.8 94.085 289.752 94.133 289.72C94.197 289.672 94.269 289.64 94.349 289.624C94.461 289.592 94.565 289.576 94.661 289.576C94.773 289.56 94.877 289.56 94.973 289.576C95.133 289.624 95.325 289.696 95.549 289.792C95.789 289.888 95.973 290.056 96.101 290.296ZM115.293 295.288C115.261 295.816 115.229 296.352 115.197 296.896C115.165 297.424 115.077 297.936 114.933 298.432C114.805 298.928 114.597 299.376 114.309 299.776C114.037 300.176 113.645 300.496 113.133 300.736C112.685 300.96 112.205 301.112 111.693 301.192C111.181 301.288 110.669 301.328 110.157 301.312C109.645 301.296 109.149 301.216 108.669 301.072C108.189 300.944 107.757 300.76 107.373 300.52C106.989 300.28 106.677 299.968 106.437 299.584C106.197 299.2 106.005 298.784 105.861 298.336C105.733 297.888 105.645 297.424 105.597 296.944C105.549 296.464 105.517 296.016 105.501 295.6C105.437 294.496 105.437 293.408 105.501 292.336C105.501 292.128 105.501 291.896 105.501 291.64C105.501 291.368 105.517 291.104 105.549 290.848C105.597 290.592 105.669 290.36 105.765 290.152C105.861 289.928 106.021 289.76 106.245 289.648C106.725 289.392 107.165 289.376 107.565 289.6C107.981 289.824 108.229 290.288 108.309 290.992C108.357 291.36 108.373 291.768 108.357 292.216C108.357 292.664 108.373 293.072 108.405 293.44C108.421 293.984 108.437 294.576 108.453 295.216C108.469 295.84 108.557 296.4 108.717 296.896C108.893 297.392 109.173 297.768 109.557 298.024C109.957 298.264 110.549 298.272 111.333 298.048C111.701 297.936 111.941 297.656 112.053 297.208C112.181 296.76 112.245 296.096 112.245 295.216C112.245 294.832 112.237 294.408 112.221 293.944C112.205 293.48 112.197 293.024 112.197 292.576C112.197 292.112 112.205 291.688 112.221 291.304C112.253 290.904 112.301 290.6 112.365 290.392C112.445 290.104 112.613 289.888 112.869 289.744C113.125 289.6 113.397 289.528 113.685 289.528C113.973 289.512 114.245 289.568 114.501 289.696C114.757 289.824 114.933 290.032 115.029 290.32C115.125 290.576 115.189 290.904 115.221 291.304C115.269 291.688 115.301 292.112 115.317 292.576C115.333 293.024 115.333 293.488 115.317 293.968C115.317 294.432 115.309 294.872 115.293 295.288ZM123.001 296.776C122.697 296.584 122.353 296.432 121.969 296.32C121.601 296.208 121.217 296.104 120.817 296.008C120.433 295.912 120.057 295.808 119.689 295.696C119.321 295.568 118.985 295.392 118.681 295.168C118.025 294.672 117.641 294.064 117.529 293.344C117.433 292.608 117.593 291.872 118.009 291.136C118.233 290.752 118.529 290.44 118.897 290.2C119.265 289.944 119.665 289.752 120.097 289.624C120.545 289.48 121.001 289.4 121.465 289.384C121.929 289.368 122.369 289.392 122.785 289.456C123.057 289.504 123.345 289.576 123.649 289.672C123.953 289.752 124.233 289.864 124.489 290.008C124.761 290.152 125.001 290.336 125.209 290.56C125.433 290.768 125.593 291.032 125.689 291.352C125.753 291.56 125.761 291.76 125.713 291.952C125.681 292.144 125.601 292.304 125.473 292.432C125.361 292.56 125.209 292.656 125.017 292.72C124.841 292.784 124.649 292.8 124.441 292.768C124.201 292.72 123.977 292.648 123.769 292.552C123.561 292.456 123.353 292.352 123.145 292.24C122.937 292.128 122.721 292.032 122.497 291.952C122.289 291.872 122.065 291.832 121.825 291.832C121.457 291.816 121.153 291.88 120.913 292.024C120.673 292.168 120.505 292.344 120.409 292.552C120.329 292.76 120.337 292.984 120.433 293.224C120.545 293.464 120.769 293.672 121.105 293.848C121.409 294.008 121.745 294.136 122.113 294.232C122.481 294.328 122.841 294.424 123.193 294.52C123.561 294.616 123.913 294.728 124.249 294.856C124.601 294.984 124.913 295.16 125.185 295.384C125.713 295.816 126.033 296.32 126.145 296.896C126.273 297.472 126.241 298.04 126.049 298.6C125.857 299.16 125.521 299.656 125.041 300.088C124.577 300.52 124.025 300.808 123.385 300.952C122.921 301.048 122.417 301.096 121.873 301.096C121.345 301.096 120.817 301.04 120.289 300.928C119.777 300.816 119.281 300.64 118.801 300.4C118.337 300.16 117.945 299.856 117.625 299.488C117.401 299.232 117.281 298.944 117.265 298.624C117.265 298.288 117.329 298 117.457 297.76C117.601 297.504 117.801 297.328 118.057 297.232C118.313 297.136 118.601 297.192 118.921 297.4C119.177 297.576 119.481 297.752 119.833 297.928C120.185 298.088 120.537 298.216 120.889 298.312C121.241 298.408 121.577 298.456 121.897 298.456C122.233 298.456 122.521 298.384 122.761 298.24C123.113 298.016 123.297 297.76 123.313 297.472C123.329 297.168 123.225 296.936 123.001 296.776ZM135.934 288.4C135.87 287.984 135.838 287.56 135.838 287.128C135.854 286.696 135.934 286.272 136.078 285.856C136.254 285.312 136.542 284.832 136.942 284.416C137.342 284 137.798 283.672 138.31 283.432C138.854 283.176 139.406 283 139.966 282.904C140.542 282.792 141.102 282.768 141.646 282.832C142.206 282.896 142.742 283.04 143.254 283.264C143.782 283.472 144.278 283.776 144.742 284.176C145.238 284.608 145.606 285.112 145.846 285.688C146.102 286.248 146.238 286.832 146.254 287.44C146.286 288.048 146.214 288.656 146.038 289.264C145.878 289.856 145.63 290.408 145.294 290.92C145.294 290.92 145.286 290.936 145.27 290.968C144.998 291.336 144.686 291.672 144.334 291.976C143.982 292.264 143.654 292.576 143.35 292.912C142.998 293.28 142.79 293.656 142.726 294.04C142.662 294.408 142.598 294.824 142.534 295.288C142.486 295.736 142.366 296.128 142.174 296.464C141.998 296.784 141.662 296.936 141.166 296.92C140.83 296.904 140.574 296.8 140.398 296.608C140.238 296.4 140.118 296.16 140.038 295.888C139.974 295.6 139.95 295.304 139.966 295C139.982 294.68 140.006 294.4 140.038 294.16C140.134 293.6 140.31 293.072 140.566 292.576C140.822 292.064 141.134 291.584 141.502 291.136C141.71 290.896 141.918 290.68 142.126 290.488C142.334 290.28 142.526 290.064 142.702 289.84C142.878 289.616 143.03 289.376 143.158 289.12C143.286 288.864 143.374 288.568 143.422 288.232C143.47 287.928 143.446 287.624 143.35 287.32C143.254 287 143.11 286.72 142.918 286.48C142.726 286.224 142.494 286.016 142.222 285.856C141.95 285.68 141.654 285.584 141.334 285.568C141.046 285.552 140.742 285.592 140.422 285.688C140.102 285.768 139.806 285.904 139.534 286.096C139.262 286.272 139.038 286.488 138.862 286.744C138.702 287 138.63 287.288 138.646 287.608C138.662 287.8 138.694 288 138.742 288.208C138.806 288.4 138.846 288.592 138.862 288.784C138.894 288.96 138.886 289.136 138.838 289.312C138.806 289.488 138.702 289.656 138.526 289.816C138.238 290.088 137.95 290.224 137.662 290.224C137.374 290.208 137.11 290.112 136.87 289.936C136.63 289.76 136.422 289.536 136.246 289.264C136.086 288.976 135.982 288.688 135.934 288.4ZM142.846 300.376C142.846 300.84 142.67 301.256 142.318 301.624C141.982 301.976 141.59 302.152 141.142 302.152C140.71 302.152 140.326 301.976 139.99 301.624C139.654 301.24 139.486 300.824 139.486 300.376C139.486 299.88 139.654 299.464 139.99 299.128C140.326 298.76 140.71 298.576 141.142 298.576C141.59 298.576 141.982 298.76 142.318 299.128C142.67 299.48 142.846 299.896 142.846 300.376Z" fill="#068902"/>
</svg>
